<svg xmlns="http://www.w3.org/2000/svg" viewBox="0 0 879 378"><path d="M0 0h879v378H0z" style="fill:#000;stroke-width:4.06634"/><path fill="#ab2515" d="M0 0h14C7 10 6 22 0 33Z"/><path fill="#ee6043" d="M14 0h14L0 63V33C6 22 7 10 14 0Z"/><path fill="#8b1507" d="M28 0h7c-9 18-18 36-23 55 0 2 2 2 3 1 11-7 13-23 26-28 5 6-1 15-3 21-10 25-21 50-26 77-1 9-7 17-12 24v-7L36 41c1-7-9 1-9 5C15 59 7 75 0 92V63Z"/><path fill="#4c0803" d="M35 0h5c-3 10-9 19-11 30 8-3 14-14 24-10 2 10-6 19-8 29-13 28-23 57-30 87-3 5-9 15-5 20 7-9 17-2 16 8-5 34-6 70-13 104-8 17 8 33 9 50 3 20 9 40 10 60h-7c0-19-6-38-7-58-2-9-5-26-18-18v-23c14-18 10-44 15-66 0-17 6-35 3-52-11-3-11 14-18 20v-31c5-7 11-15 12-24 5-27 16-52 26-77 2-6 8-15 3-21-13 5-15 21-26 28-1 1-3 1-3-1 5-19 14-37 23-55Z"/><path fill="#1b0f07" d="M40 0h60c-9 19-19 38-27 58-5 9-10 19-8 29 11 4 17-8 24-15l-9 28-14 39c-7 16-12 33-15 50-2 22-9 48 5 68-1 40-14 82 2 121H32c-1-20-7-40-10-60-1-17-17-33-9-50 7-34 8-70 13-104 1-10-9-17-16-8-4-5 2-15 5-20 7-30 17-59 30-87 2-10 10-19 8-29-10-4-16 7-24 10 2-11 8-20 11-30Z"/><path fill="#8a5328" d="M100 0h3c-8 16-17 32-24 49-1 3-3 6-1 9l2 3c-3 6-5 12-9 16-8-1 3-13 2-19 8-20 18-39 27-58Z"/><path fill="#e68e36" d="M103 0h14c-15 17-25 39-39 58-2-3 0-6 1-9 7-17 16-33 24-49Z"/><path fill="#d5510b" d="M117 0h5c-15 20-28 41-42 61l-2-3c14-19 24-41 39-58Z"/><path fill="#951702" d="M122 0h7c-8 11-13 24-20 35l-1-3C94 45 88 66 71 77c4-4 6-10 9-16 14-20 27-41 42-61Z"/><path fill="#a24d22" d="M129 0h1l-2 5C99 62 69 121 57 185c-3 6-2 13-2 20-6 15 10 25 8 40v10l-1 17c-8 34-8 73 7 106h-4c-21-40-6-88-5-132 1-5-6-6-7-11-7-33 4-65 13-96l14-39 29-65c7-11 12-24 20-35z"/><path fill="#ff991b" d="M130 0h69c-21 32-39 65-54 100-12 24-20 51-19 78-5 16 8 31 4 48-3 38-9 77 5 114 4 13 6 26 11 38h-33c-1-6-1-10 6-10 1-10 0-21 2-32-6-2-3-15-2-21-3-13 0-25-2-38-1-8-2-17 3-24 4-24-7-48-1-71 1-24 9-50 0-73-8-4-14 4-17 10-7 10-8 22-13 33v-15c-8 9-15 19-16 31-1 2-3 3-5 2 5-23 20-44 25-68 4-23 19-43 26-66 2-12 13-20 13-32l-4 1z"/><path fill="#e15408" d="M199 0h6c-27 39-55 79-65 126 10-5 12-20 20-29h1c-2 9-7 17-8 26-11 4-8 25-20 29-2-18 8-35 12-52 15-35 33-68 54-100z"/><path fill="#a41f02" d="M205 0h7c-15 20-31 39-42 62-7 10-14 21-17 33 4 5 8-7 12-9l-5 11c-8 9-10 24-20 29 10-47 38-87 65-126z"/><path fill="#640d04" d="M212 0h6c-12 16-21 34-31 51l-22 35c-4 2-8 14-12 9 3-12 10-23 17-33 11-23 27-42 42-62z"/><path fill="#3b362b" d="M218 0h24l-7 8-10 8c0-3-4-1-6 0-13 9-21 23-32 35 10-17 19-35 31-51z"/><path fill="#3c0d09" d="M242 0h6c-12 21-30 39-40 61-30 50-49 106-56 164-2-31 8-61 14-91 10-32 26-62 45-90 4-15 21-21 24-36z"/><path fill="#32202d" d="M248 0h5c-41 51-72 110-88 174-8 29-14 60-6 91 6 38 14 76 23 113h-4c-16-49-25-101-26-153 7-58 26-114 56-164 10-22 28-40 40-61Z"/><path fill="#28425a" d="M253 0h4c-41 50-73 108-89 171-16 52-2 107 7 160 4 15 9 31 12 47h-5c-9-37-17-75-23-113-8-31-2-62 6-91 16-64 47-123 88-174z"/><path fill="#216581" d="M257 0h5c-33 40-62 84-79 134a429 429 0 0 0 11 244h-7c-3-16-8-32-12-47-9-53-23-108-7-160 16-63 48-121 89-171z"/><path fill="#097e97" d="M262 0h58c-14 22-35 38-52 58-29 29-47 68-59 107 0 3 1 8 5 7v1h-3c-5-1-5-7-3-11 9-25 18-49 32-71 9-18 24-31 35-47 2-3 2-8-3-6-11 8-16 21-26 29-25 39-45 80-58 124-7 13-7 27-8 41-10 50 3 101 24 146h-10c-10-35-21-70-23-106-5-46-5-94 12-138 17-50 46-94 79-134m13 17c-36 27-61 67-79 108-4 17-15 34-10 51 8-1 7-13 10-17 8-24 19-46 31-67 13-25 32-45 48-68 2-2 6-9 0-7z"/><path fill="#006177" d="M320 0h34c-61 32-118 83-138 151 0 7-6 15-2 21-4 1-5-4-5-7 12-39 30-78 59-107 17-20 38-36 52-58z"/><path fill="#073d58" d="M354 0h33c-17 11-36 20-50 34-17 11-33 22-46 37-7 5-14 12-17 20 33-31 74-57 119-67 28-7 56 1 84 2 11 6 25-1 33 10 7 3 10 13 4 18-14 6-28 0-42-3-9 4-19 7-25 15 8 12 23 16 29 30 5 13-11 19-18 28-5 7-14 13-14 22h-5c-2-1-10-4-5-7 8-1 10-9 13-14 9-6 18-12 24-20 3-18-19-21-30-28-10 1-15-5-20-12 1-6 7-8 10-11 21-3 42-16 63-8 7-1 3-9-3-8-7 4-14-1-20-4-85-23-175 23-222 94-5 3 0-7 1-9 23-44 64-72 102-102 2-3-2-5-4-3-29 7-51 28-73 47-21 18-37 43-49 68-5 14-14 30-9 44h-3v-1c-4-6 2-14 2-21C236 83 293 32 354 0Z"/><path fill="#074d69" d="M387 0h17c-12 7-27 10-37 20-4 0-17 9-5 8 37-19 79-10 119-12 11 3 26 3 35 10 6 9 18 20 9 31-16 7-35 3-52 2-8 2-10 15-3 20 7 7 14 16 13 27-13 12-22 27-33 40h-6c0-9 9-15 14-22 7-9 23-15 18-28-6-14-21-18-29-30 6-8 16-11 25-15 14 3 28 9 42 3 6-5 3-15-4-18-8-11-22-4-33-10-28-1-56-9-84-2-45 10-86 36-119 67 3-8 10-15 17-20 13-15 29-26 46-37 14-14 33-23 50-34z"/><path fill="#026079" d="M404 0h96c12 5 26 2 36 10 18 7 42 8 54 25 6-4 12 3 17 0 13-16 30-1 44 5 8 7 12 18 22 24 47 55 67 132 52 203-9 25-18 51-29 75 17-47 37-96 28-148-3-23-9-49-23-68-12-8-12-24-23-33-2-7-14-24-19-10-8 9 8 15 6 25 12 13 11 31 20 46 8 21 12 43 17 65-4 31 2 63-10 93 5-21-1-42 2-63 3-46-8-93-32-132-13-8-20-28-38-27-4 0-8-3-12-2l-2-2c2-7-5-11-10-15l-12-22c-16-8-30-30-50-19-1 11 4 27-9 33-18 3-36 4-54 4-1 11 10 19 10 30l-2 9c1-11-6-20-13-27-7-5-5-18 3-20 17 1 36 5 52-2 9-11-3-22-9-31-9-7-24-7-35-10-40 2-82-7-119 12-12 1 1-8 5-8 10-10 25-13 37-20z"/><path fill="#04516c" d="M500 0h117c0 8 16 3 8 10l31 23c40 40 66 94 73 150 4 38 4 76 3 114-5 28-13 55-25 81h-13c11-24 22-48 25-74 0-6-6 3-7 5l-30 69h-3l17-36c11-24 20-50 29-75 15-71-5-148-52-203-10-6-14-17-22-24-14-6-31-21-44-5-5 3-11-4-17 0-12-17-36-18-54-25-10-8-24-5-36-10Z"/><path fill="#01405b" d="M617 0h22a324 324 0 0 1 96 223c2 31 5 63-5 94-6 21-12 41-21 61h-2c12-26 20-53 25-81 1-38 1-76-3-114-7-56-33-110-73-150l-31-23c8-7-8-2-8-10z"/><path fill="#012e45" d="M639 0h15c13 22 33 40 44 63 15 21 20 46 27 70 12 46 16 95 16 143-5 35-16 70-30 102h-2c9-20 15-40 21-61 10-31 7-63 5-94A324 324 0 0 0 639 0Z"/><path fill="#021e2e" d="M654 0h11c11 20 27 37 39 57 28 54 34 116 42 176 3 35-4 70-16 102-4 15-8 29-15 43h-4c14-32 25-67 30-102 0-48-4-97-16-143-7-24-12-49-27-70-11-23-31-41-44-63Z"/><path fill="#07121a" d="M665 0h13c8 12 14 25 25 35 12 2 10 19 14 28 8 14 11 29 17 44 4 24 13 46 13 70 4 40 12 81 1 120 2 21-13 37-17 56-2 9-6 17-9 25h-7c7-14 11-28 15-43 12-32 19-67 16-102-8-60-14-122-42-176-12-20-28-37-39-57Z"/><path fill="#100e0c" d="M678 0h104c16 55 31 110 42 166-3 17 8 33 5 50 3 33-8 65-12 97-5 22-14 44-22 65h-73c3-8 7-16 9-25 4-19 19-35 17-56 11-39 3-80-1-120 0-24-9-46-13-70-6-15-9-30-17-44-4-9-2-26-14-28-11-10-17-23-25-35Z"/><path fill="#2e0e06" d="M782 0h5c18 51 26 105 41 158-1 17 5 34 8 51-1 57-16 115-35 169h-6c8-21 17-43 22-65 4-32 15-64 12-97 3-17-8-33-5-50-11-56-26-111-42-166Z"/><path fill="#54100b" d="M787 0h5c12 29 14 60 25 89 3 25 12 49 16 73 0 17 6 32 7 49-3 55-18 108-31 160 12-3 14-19 24-24 5 10-2 21-4 31h-28c19-54 34-112 35-169-3-17-9-34-8-51-15-53-23-107-41-158Z"/><path fill="#801412" d="M792 0h4c11 14 9 33 17 49 1 15 8 30 10 45 1 26 15 51 15 78 13 58-9 117-18 175 7 3 11-14 18-10 5 13-3 28-6 41h-3c2-10 9-21 4-31-10 5-12 21-24 24 13-52 28-105 31-160-1-17-7-32-7-49-4-24-13-48-16-73-11-29-13-60-25-89Z"/><path fill="#a9151b" d="M796 0h8c6 8 7 19 8 29 18 41 17 87 34 129-2 15 1 30 3 45-3 41-12 80-20 120-2 8 8 1 10-1 7-3 6 6 7 10 1 16-7 31-11 46h-3c3-13 11-28 6-41-7-4-11 13-18 10 9-58 31-117 18-175 0-27-14-52-15-78-2-15-9-30-10-45-8-16-6-35-17-49Z"/><path fill="#ca1526" d="M804 0h16c2 6 2 16 10 16 1 2 1 7 3 3-1 12-6 25-2 37 3 14 7 28 8 42-3 17 18 26 13 43 12 44 0 92-4 137 0 19 6 38 3 57-2 15-9 28-13 43h-3c4-15 12-30 11-46-1-4 0-13-7-10-2 2-12 9-10 1 8-40 17-79 20-120-2-15-5-30-3-45-17-42-16-88-34-129-1-10-2-21-8-29Z"/><path fill="#dc1736" d="M820 0h59v378h-41c4-15 11-28 13-43 3-19-3-38-3-57 4-45 16-93 4-137 5-17-16-26-13-43-1-14-5-28-8-42-4-12 1-25 2-37-2 4-2-1-3-3-8 0-8-10-10-16z"/><path fill="#f2a248" d="m128 5 4-1c0 12-11 20-13 32-7 23-22 43-26 66-5 24-20 45-25 68-7 3-5 15-11 15C69 121 99 62 128 5Z"/><path fill="#681007" d="m225 16 10-8c-3 15-20 21-24 36-19 28-35 58-45 90-6 30-16 60-14 91 1 52 10 104 26 153h-6c-7-29-17-57-19-87 0-33-10-65-4-98a347 347 0 0 1 76-177Z"/><path fill="#0b2c43" d="M348 14c2-2 6 0 4 3-38 30-79 58-102 102-1 2-6 12-1 9 47-71 137-117 222-94 6 3 13 8 20 4 6-1 10 7 3 8-21-8-42 5-63 8-3 3-9 5-10 11 5 7 10 13 20 12 11 7 33 10 30 28-6 8-15 14-24 20-3 5-5 13-13 14-5 3 3 6 5 7l-14-2c-11-3-2-18-12-23 7-5 16-15 25-8 8-2 27-3 23-16-9-12-26-8-38-15-5-3-18-4-16-13-8-7 5-14 9-20 5-5-2-9-7-8-52-7-99 24-135 59-16 21-32 42-42 66-3 5 1 5 3 6-3 0-7 0-10 2-2 2-4 2-6 2l-2-3c-5-14 4-30 9-44 12-25 28-50 49-68 22-19 44-40 73-47m-21 12c-19 10-37 24-53 39-29 28-56 65-56 107 6 1 0-9 6-10 8-13 11-30 22-42 20-37 52-66 85-92 1-3-2-2-4-2z"/><path fill="#93683b" d="M219 16c2-1 6-3 6 0a385 385 0 0 0-50 77c8-21 23-40 33-60-6 0-9 7-12 11-15 16-24 35-35 53h-1l5-11 22-35c11-12 19-26 32-35z"/><path fill="#056982" d="M275 17c6-2 2 5 0 7-16 23-35 43-48 68-12 21-23 43-31 67-3 4-2 16-10 17-5-17 6-34 10-51 18-41 43-81 79-108m-29 34c-6 1-9 7-13 11-19 25-33 53-40 83-2 13 7-1 8-5a546 546 0 0 1 45-89z"/><path fill="#041e2d" d="M327 26c2 0 5-1 4 2-33 26-65 55-85 92-11 12-14 29-22 42-6 1 0 11-6 10 0-42 27-79 56-107 16-15 34-29 53-39z"/><path fill="#087485" d="M538 30c20-11 34 11 50 19l12 22c5 4 12 8 10 15-18-12-38-31-62-25-9 6-21 8-32 6-7 8-20 10-24 21-2 3-4 7-7 9 0-11-11-19-10-30 18 0 36-1 54-4 13-6 8-22 9-33z"/><path fill="#551306" d="M71 77c17-11 23-32 37-45l1 3-29 65 9-28c-7 7-13 19-24 15-2-10 3-20 8-29 1 6-10 18-2 19Z"/><path fill="#e89c57" d="M196 44c3-4 6-11 12-11-10 20-25 39-33 60-5 10-10 19-12 30h-10c1-9 6-17 8-26 11-18 20-37 35-53z"/><path fill="#c14026" d="M27 46c0-4 10-12 9-5L0 143v-9c10-24 17-49 26-74 1-3 2-8-2-6C13 67 6 84 0 100v-8c7-17 15-33 27-46Z"/><path fill="#0489a3" d="M272 38c5-2 5 3 3 6-11 16-26 29-35 47-14 22-23 46-32 71-2 4-2 10 3 11v1c-5 12 0 28-2 42v1l-1-1c0-11 1-22-1-32-4-1-5 3-5 6-7 40-4 80 5 120 2 16 12 29 18 44l11 24h-32c-21-45-34-96-24-146 1-14 1-28 8-41 13-44 33-85 58-124 10-8 15-21 26-29z"/><path fill="#0c1b29" d="M274 100c36-35 83-66 135-59 5-1 12 3 7 8-4 6-17 13-9 20-2 9 11 10 16 13 12 7 29 3 38 15 4 13-15 14-23 16-9-7-18 3-25 8l-17-1c9-6 21-10 23-22-10-14-31-11-44-22-3-13 21-7 16-21-7-9-19-4-28-6-58 19-106 67-123 124l-5-1c-2-1-6-1-3-6 10-24 26-45 42-66z"/><path fill="#131010" d="M240 173c17-57 65-105 123-124 9 2 21-3 28 6 5 14-19 8-16 21 13 11 34 8 44 22-2 12-14 16-23 22l-30 16c-8 1 0-10-5-13-9-4-16 6-22 11-8 10-15 22-17 35-9 4-17-2-25 2-13-1-25 3-38 1-3 8 1 19-2 26-6-8-10-18-17-25z"/><path fill="#024a5f" d="M246 51a546 546 0 0 0-45 89c-1 4-10 18-8 5 7-30 21-58 40-83 4-4 7-10 13-11z"/><path fill="#f4734d" d="M24 54c4-2 3 3 2 6-9 25-16 50-26 74v-34c6-16 13-33 24-46Z"/><path fill="#2f7b7e" d="M548 61c24-6 44 13 62 25l2 2 5 10-8-5c-16-13-36-29-58-24-12 5-27-1-38 8-20 7-19 32-34 44-9 8-13 21-24 26l-5-1c11-13 20-28 33-40l2-9c3-2 5-6 7-9 4-11 17-13 24-21 11 2 23 0 32-6z"/><path fill="#5d8c7c" d="M551 69c22-5 42 11 58 24l-11-3c-15-16-39-16-59-14-13 0-29 4-35 17-8 7-9 20-18 27-12 9-14 26-29 31l-2-4c11-5 15-18 24-26 15-12 14-37 34-44 11-9 26-3 38-8z"/><path fill="#919673" d="M539 76c20-2 44-2 59 14l-1 3c-17-13-39-13-60-13-13 1-27 8-32 21-10 19-26 34-37 52l-12 3 1-5c15-5 17-22 29-31 9-7 10-20 18-27 6-13 22-17 35-17z"/><path fill="#04778d" d="M659 83c5-14 17 3 19 10 11 9 11 25 23 33 14 19 20 45 23 68 9 52-11 101-28 148l-17 36h-18c13-20 27-41 31-66 12-30 6-62 10-93-5-22-9-44-17-65-9-15-8-33-20-46 2-10-14-16-6-25z"/><path fill="#bfa26d" d="M537 80c21 0 43 0 60 13l1 2c-11-1-22-7-33-5-16-6-33 2-48 8-7 22-33 34-36 57-4-2-9-2-13-2 11-18 27-33 37-52 5-13 19-20 32-21z"/><path fill="#e6a864" d="M517 98c15-6 32-14 48-8-1 16-20 25-33 29-13 3-9 20-18 27-9 5-17 14-28 11l-5-2c3-23 29-35 36-57z"/><path fill="#145361" d="M612 88c4-1 8 2 12 2 18-1 25 19 38 27 24 39 35 86 32 132-3 21 3 42-2 63-4 25-18 46-31 66h-4c16-23 34-49 33-79-3-3-5 5-6 7-10 26-25 48-39 72h-3c8-15 18-29 23-46 2-3 1-5-1-7 22-33 31-74 25-113-6-41-17-88-57-109l-14-4-1-1z"/><path fill="#e29449" d="M565 90c11-2 22 4 33 5l7 6c-13-3-25 0-35 8-13 1-22 11-33 15-11 12-14 30-28 38-6 3-6 11-2 15 4-3 6-8 11-8-8 4-12 20-2 24 7 5 20-1 24 9 2 9-16 10-19 3 6 3 17 6 18-3-6-8-20-2-27-9-4-1-1-10-5-7-6 2 0 8 1 12 5 0 13 0 13 7-3-4-14-7-11 0 4 10 17 11 27 10l-11 2c-9 3-17-18-22-5l-8 5h-6c8-2 18-8 16-19-2-16-23-5-29-16 1-7 14-8 18-2 2 6 14 7 10-2-4-11-17-11-27-10l13-4-5-7c11 3 19-6 28-11 9-7 5-24 18-27 13-4 32-13 33-29z"/><path fill="#846840" d="m598 90 11 3 8 5 1 1 10 11-1 6c-7-5-12-12-20-14l-2-1-7-6-1-2z"/><path fill="#a11903" d="m175 93 2-1c-15 32-23 66-28 101-6 33 4 65 4 98 2 30 12 58 19 87h-4c-6-25-16-50-17-76-3-16 0-33-6-48-6-36 3-71 9-105l9-26c2-11 7-20 12-30z"/><path fill="#1f4047" d="m618 99 14 4c40 21 51 68 57 109 6 39-3 80-25 113-5 1-7 6-9 10v-3l1-2c28-39 39-92 25-139-1-20-12-38-21-56-7-9-15-19-26-20l-6-5z"/><path fill="#fe7e0f" d="M126 178c-1-27 7-54 19-78-4 17-14 34-12 52 12-4 9-25 20-29h10l-9 26-3 8c-11 33-17 67-17 102-3 21 1 43 9 63 3 19 7 37 12 56h-9c-5-12-7-25-11-38-14-37-8-76-5-114 4-17-9-32-4-48z"/><path fill="#ec8427" d="M570 109c10-8 22-11 35-8l2 1-3 8h-1c-9-2-17 2-24 8-11 6-25 3-35 12-9 9-12 22-19 33 6 4 15 3 22 7l2 8c-5-12-20-12-31-9-5 0-7 5-11 8-4-4-4-12 2-15 14-8 17-26 28-38 11-4 20-14 33-15z"/><path fill="#c14b12" d="M607 102c8 2 13 9 20 14 7 15 20 26 25 41 2 5 4 9 9 11-12-4-6 13-8 20 1 7-5 0-4-4l1-5c3-17-7-34-20-44-5-12-15-19-26-25z"/><path fill="#ffa32d" d="M102 119c3-6 9-14 17-10 9 23 1 49 0 73-6 23 5 47 1 71-5 7-4 16-3 24 2 13-1 25 2 38-1 6-4 19 2 21-2 11-1 22-2 32-7 0-7 4-6 10H87c-3-23-13-46-16-69 1-11-7-20-3-31 7-42 11-85 21-126 5-11 6-23 13-33z"/><path fill="#fa6b03" d="M579 118c7-6 15-10 24-8-14 4-7 20 1 26 11 3 15 13 25 18 8 7 16 15 21 25l-1 5c-4-9-13-22-25-17-9 7-19-4-29-1h-2c-9-3-15 5-24 7-4-5-13-10-16-1l-6-2c-7-4-16-3-22-7 7-11 10-24 19-33 10-9 24-6 35-12z"/><path fill="#ee4e03" d="M603 110h1c11 6 21 13 26 25 13 10 23 27 20 44-5-10-13-18-21-25-10-5-14-15-25-18-8-6-15-22-1-26z"/><path fill="#743113" d="m628 110 6 5 9 13c12 23 29 43 23 70h-1c-1-9 1-19-1-28l-1-1-2-1c-5-2-7-6-9-11-5-15-18-26-25-41z"/><path fill="#202624" d="M634 115c11 1 19 11 26 20 9 18 20 36 21 56 14 47 3 100-25 139 4-20 19-35 22-55 5-26 8-53-1-78-1-26-16-50-34-69z"/><path fill="#40141a" d="m366 136 30-16 17 1c10 5 1 20 12 23l-3 1c-3 0-15 1-13-6 2-4 8-12 1-14-20-1-38 11-52 25-10 10-6-10-7-16-14 1-19 16-24 27-1 3 0 8-4 9-9 2-17 3-26 1 8-4 16 2 25-2 2-13 9-25 17-35 6-5 13-15 22-11 5 3-3 14 5 13z"/><path fill="#701821" d="M358 150c14-14 32-26 52-25 7 2 1 10-1 14-2 7 10 6 13 6v5c-6-1-13 0-19-2-6-5 7-13 2-18-22-1-39 16-53 31-10 2-4-13-11-16-6 4-9 12-11 18 1 5 8 2 10 6-4 0-9-1-13 1h-4c4-1 3-6 4-9 5-11 10-26 24-27 1 6-3 26 7 16z"/><path fill="#331107" d="M643 128c18 19 33 43 34 69 9 25 6 52 1 78-3 20-18 35-22 55l-1 2c-13 14-23 31-36 46h-6c19-23 29-51 42-78 21-29 23-69 11-102 6-27-11-47-23-70z"/><path fill="#9f1b29" d="M352 161c14-15 31-32 53-31 5 5-8 13-2 18 6 2 13 1 19 2 7 3 16 3 22 8-15-5-32-4-48-3-9-4 7-20-7-17-17 5-29 19-39 32h-23c4-2 9-1 13-1-2-4-9-1-10-6 2-6 5-14 11-18 7 3 1 18 11 16z"/><path fill="#fc7e2e" d="M73 168c1-12 8-22 16-31v15c-10 41-14 84-21 126-4 11 4 20 3 31 3 23 13 46 16 69H75c-2-18-11-34-14-53-2-17-1-35 1-53l1-17c3-23 9-46 14-69-1-3 3-14-2-11-9 9-10 23-18 33l-2-3c0-7-1-14 2-20 6 0 4-12 11-15 2 1 4 0 5-2z"/><path fill="#c92637" d="M350 170c10-13 22-27 39-32 14-3-2 13 7 17a148 148 0 0 1 55 4c-2 13-15 6-22 11-6 8-6 18-11 27-7-10-4-33-22-28-6 0-5 6-5 10-4 0-2-7-6-8-11-3-24-3-35-1z"/><path fill="#5d260a" d="M51 189c3-17 8-34 15-50-9 31-20 63-13 96 1 5 8 6 7 11-1 44-16 92 5 132h-7c-16-39-3-81-2-121-14-20-7-46-5-68Z"/><path fill="#6d3f53" d="m422 145 3-1 14 2h11l5 1 2 4-1 5-5 3-7-1c-6-5-15-5-22-8z"/><path fill="#d62f02" d="m151 157 3-8c-6 34-15 69-9 105 6 15 3 32 6 48 1 26 11 51 17 76h-5c-10-31-15-63-19-96-11-41-2-84 7-125z"/><path fill="#d07d54" d="m456 156 12-3c4 0 9 0 13 2l5 2 5 7-13 4c-10 2-14 13-11 22 6 10 18 7 28 10 4 11-13 11-17 4-3-5-15-7-12 2 4 9 14 13 24 11h6l-11 2c-17-3-34 1-50-4 3 0 6 2 9 1 0-15 1-31-1-46-20-7-17 21-24 30-11-7-5-35-25-29-4 12 0 27-2 40-1 5 5 4 9 4 3-8 0-17 1-25 9 4 4 29 20 25l10-23c5 6 1 16 3 23-5-3 2-15-5-15l-5 13c-2 7-15 5-15-3-3-3-2-10-7-12-2 6 3 15-2 19-6 1-11-2-16 0-2 0-4 0-6-2 16 5 8-16 6-24 5-7 4-18-6-20-9 1-20-2-29 1-3 13 0 27-2 40 0 6 14 4 10-3-5-14 10-14 19-11 2 6 0 12 2 17-3-3-2-8-3-12 0-8-11-2-16-4-1 6 4 16-4 19-13-3-26 2-39 0-3 0-5 0-7-2l1-8c-4 14 14 6 21 8 4 1 17 0 12-7-7-4-27 5-23-10 4-5 15-1 21-3 2-13-13-4-19-9 6 2 23-5 21 7-2 11-25-4-22 11 7 4 19-3 25 4v-30c-7 5-27-5-24 8-10-16 23 0 21-14-6-2-16-1-23-1l6-2h23c11-2 24-2 35 1 4 1 2 8 6 8 0-4-1-10 5-10 18-5 15 18 22 28 5-9 5-19 11-27 7-5 20 2 22-11l5-3m-1 13c-3 1-5 6-4 9 1 12-2 25 1 37 15 7 9-15 10-23-1-6 6-24-7-23z"/><path fill="#f85602" d="M134 259c0-35 6-69 17-102-9 41-18 84-7 125 4 33 9 65 19 96h-8c-5-19-9-37-12-56-8-20-12-42-9-63z"/><path fill="#7d1007" d="M0 181c7-6 7-23 18-20 3 17-3 35-3 52-5 22-1 48-15 66v-13c12-26 10-56 15-84 0-4 2-16-5-12L0 187Z"/><path fill="#e49136" d="M569 173c9-2 15-10 24-7-9 3-20 6-24 15-3 11 0 23 8 31 14 9 36 4 41-12 6 0 0 11 6 13 15 3 3-20 10-24 11 6 13 25 28 24 5-13 0-29 2-43 2 9 0 19 1 28 0 6 1 12-2 17h-8c-6-2-13-20-19-9-1 8-10 13-16 7-7-3-13 4-19 5h-15l-9-4c-6-4-8-10-11-15-2 3 0 10-2 15l-1-1c0-13 2-27 1-40-1-4-8-5-9 0-2 9-1 18-1 27l-1-28c3-9 12-4 16 1z"/><path fill="#ec9434" d="M595 166c10-3 20 8 29 1 12-5 21 8 25 17-1 4 5 11 4 4 2-7-4-24 8-20l2 1c-17-4-2 20-10 26-8-7-10-21-20-27-10-2-12 10-13 17-5-10-13-17-25-19z"/><path fill="#fcc66d" d="M593 166h2c12 2 20 9 25 19 1-7 3-19 13-17 10 6 12 20 20 27 8-6-7-30 10-26l1 1c-2 14 3 30-2 43-15 1-17-18-28-24-7 4 5 27-10 24-6-2 0-13-6-13-5 16-27 21-41 12-8-8-11-20-8-31 4-9 15-12 24-15m-5 11c-13 5-12 28 2 31 9 0 19-7 17-17 2-10-10-16-19-14z"/><path fill="#fbc484" d="M467 190c-3-9 1-20 11-22 10-1 23-1 27 10 4 9-8 8-10 2-4-6-17-5-18 2 6 11 27 0 29 16 2 11-8 17-16 19-10 2-20-2-24-11-3-9 9-7 12-2 4 7 21 7 17-4-10-3-22 0-28-10z"/><path fill="#fcc378" d="M518 169c11-3 26-3 31 9 1 13-11 3-15-1-5-3-16 0-12 7 8 3 18 2 25 8 6 9 0 21-10 23-10 1-23 0-27-10-3-7 8-4 11 0 3 7 21 6 19-3-4-10-17-4-24-9-10-4-6-20 2-24z"/><path fill="#b12213" d="M10 170c7-4 5 8 5 12-5 28-3 58-15 84v-15c5-23 8-47 11-70-4-7-8 6-11 9v-3z"/><path fill="#fbc088" d="M455 169c13-1 6 17 7 23-1 8 5 30-10 23-3-12 0-25-1-37-1-3 1-8 4-9z"/><path fill="#fcc379" d="M555 173c1-5 8-4 9 0 1 13-1 27-1 40-10 5-9-7-9-13 0-9-1-18 1-27z"/><path fill="#877652" d="M297 171c9 2 17 1 26-1h4l-6 2-9 1-1 35-1 8-1-3v-8c0-9 3-18 1-26-4-1-9 2-13 2-2 11-2 24-2 36h-9c-5-11 0-25-3-36-5-2-17-5-13 5-4 10 8 35-11 32-11-4-13-19-22-27-2 9 5 35-12 25v-42c3-2 7-2 10-2l5 1c7 7 11 17 17 25 3-7-1-18 2-26 13 2 25-2 38-1m-24 2c-6 8 8 5 12 7 5 11-4 25 2 36 14-1 4-22 7-30-4-12 16-3 14-13h-35m-45 1c-5 13-1 28-1 41 17 6 2-22 10-28 8 9 13 20 20 29 4 0 10 1 11-4-1-12 2-26-1-38-15-2-3 21-10 27-9-9-12-30-29-27z"/><path fill="#fcbf8b" d="M419 200c7-9 4-37 24-30 2 15 1 31 1 46-3 1-6-1-9-1-2-7 2-17-3-23l-10 23c-16 4-11-21-20-25-1 8 2 17-1 25-4 0-10 1-9-4 2-13-2-28 2-40 20-6 14 22 25 29z"/><path fill="#b96721" d="m547 170 6 2 1 28c0 6-1 18 9 13l1 1h1c-4 1-10 3-12-2-1-2 2-15-2-10 0 11-12 16-22 16h-3v-1l11-2c10-2 16-14 10-23-7-6-17-5-25-8-4-7 7-10 12-7 4 4 16 14 15 1z"/><path fill="#fcbd8e" d="M350 172c9-3 20 0 29-1 10 2 11 13 6 20 2 8 10 29-6 24-2-5 0-11-2-17-9-3-24-3-19 11 4 7-10 9-10 3 2-13-1-27 2-40m10 7c-7 11 11 11 17 7 4-9-13-7-17-7z"/><path fill="#faca98" d="m312 173 9-1c7 0 17-1 23 1 2 14-31-2-21 14 6 5 21-4 19 9-6 2-17-2-21 3-4 15 16 6 23 10 5 7-8 8-12 7-7-2-25 6-21-8z"/><path fill="#7f967a" d="M211 173h6l2 3c-4 13 6 32-4 42l-6-1v-1l7 1c2-14 3-28 1-42l-6-1z"/><path fill="#e8d19f" d="M273 173h35c2 10-18 1-14 13-3 8 7 29-7 30-6-11 3-25-2-36-4-2-18 1-12-7z"/><path fill="#f24d16" d="M75 175c5-3 1 8 2 11-5 23-11 46-14 69v-10c2-15-14-25-8-40l2 3c8-10 9-24 18-33z"/><path fill="#bae3c9" d="M209 216c2-14-3-30 2-42l6 1c2 14 1 28-1 42z"/><path fill="#3b401e" d="M219 176c2 0 4 0 6-2v42c-2-4 2-14-5-13l-1 15-2 1h-2v-1c10-10 0-29 4-42z"/><path fill="#e4d5a6" d="M228 174c17-3 20 18 29 27 7-6-5-29 10-27 3 12 0 26 1 38-1 5-7 4-11 4-7-9-12-20-20-29-8 6 7 34-10 28 0-13-4-28 1-41z"/><path fill="#ee7b14" d="M588 177c9-2 21 4 19 14 2 10-8 17-17 17-14-3-15-26-2-31z"/><path fill="#341610" d="M297 181c4 0 9-3 13-2 2 8-1 17-1 26-6 3-5 11-6 17-3 26 4 53 19 75 11 16 26 33 46 36 16 5 32 2 48-2-3 3-6 7-10 9-21 2-44 2-61-12-33-24-50-66-45-106-1-7-10-2-14-5h9c0-12 0-25 2-36z"/><path fill="#d74830" d="M0 190c3-3 7-16 11-9-3 23-6 47-11 70z"/><path fill="#13100d" d="M270 186c-4-10 8-7 13-5 3 11-2 25 3 36 4 3 13-2 14 5-5 40 12 82 45 106 17 14 40 14 61 12 8 11 10 25 16 38H293c-11-13-18-30-29-44-3-9-17-5-17-16 1-16-14-26-13-42-2-17-8-34-5-51l-10-7 1-15c7-1 3 9 5 13 17 10 10-16 12-25 9 8 11 23 22 27 19 3 7-22 11-32z"/><path fill="#b34025" d="M347 179v30c-6-7-18 0-25-4-3-15 20 0 22-11 2-12-15-5-21-7-3-13 17-3 24-8z"/><path fill="#b15325" d="M360 179c4 0 21-2 17 7-6 4-24 4-17-7z"/><path fill="#01748e" d="M202 190c0-3 1-7 5-6 2 10 1 21 1 32-5-1-5 5-5 8 3 54 15 108 43 154h-10l-11-24c-6-15-16-28-18-44-9-40-12-80-5-120z"/><path fill="#aa470f" d="M507 186c4-3 1 6 5 7 7 7 21 1 27 9-1 9-12 6-18 3 0-7-8-7-13-7-1-4-7-10-1-12z"/><path fill="#d21d39" d="M403 198c5 2 4 9 7 12 0 8 13 10 15 3 3-1 10-13 7-2 2 18 7 37 7 55-2 11-17 24-8 35-25 19-64 27-89 3-21-22-36-55-25-86 13 2 26-3 39 0 8-3 3-13 4-19 5 2 16-4 16 4-8 1-5 13-12 16-14 3-29 0-43 4-7 6-2 17-2 25 0 19 11 35 22 49 17 0 35 7 53 3 11-6 8-21 4-30-1-15 0-31-8-45-3-2-10-4-5-8 5-2 10 1 16 0 5-4 0-13 2-19z"/><path fill="#b63a04" d="M665 198h1c-1 23 6 47-3 70-15 39-29 79-58 110h-8c20-18 37-40 46-66 8-19 15-38 19-59 3-12-1-25 1-38 3-5 2-11 2-17z"/><path fill="#701000" d="M666 198c12 33 10 73-11 102-13 27-23 55-42 78h-8c29-31 43-71 58-110 9-23 2-47 3-70z"/><path fill="#6d1604" d="M564 214c2-5 0-12 2-15 3 5 5 11 11 15 5 3 1 9 3 14 5 18 0 37-11 51-3 2-8 8-10 3 1-5 1-17-7-13-7 4-20 11-25 1-1-17-4-35 2-52 10 0 22-5 22-16 4-5 1 8 2 10-25 4-23 37-18 55 10 7 21-14 29-2 3 9 11-1 12-6 1-15 4-36-11-45z"/><path fill="#d5444e" d="M430 200c7 0 0 12 5 15 16 5 33 1 50 4-4 4 1 9 0 14-5 13-5 28-3 42l-4 4c-15-15-43 4-35 24h-3l-9-2c-9-11 6-24 8-35 0-18-5-37-7-55 3-11-4 1-7 2z"/><path fill="#ff7701" d="M636 206c6-11 13 7 19 9-10 3-5 16-5 24 4 20-12 33-21 49-10 25-29 48-54 59-4 4-11-3-6-6 15-13 22-32 27-51 5-18 14-34 13-53-1-7 1-19-8-19 6-1 12-8 19-5 6 6 15 1 16-7z"/><path fill="#ea204c" d="M364 219c7-3 4-15 12-16 1 4 0 9 3 12 2 2 4 2 6 2-5 4 2 6 5 8 8 14 7 30 8 45 4 9 7 24-4 30-18 4-36-3-53-3-11-14-22-30-22-49 0-8-5-19 2-25 14-4 29-1 43-4z"/><path fill="#571827" d="M303 222c1-6 0-14 6-17v8c-8 20-3 42 4 61 12 25 30 52 60 56 25 6 47-8 67-20l6 1-5 4-25 16c-16 4-32 7-48 2-20-3-35-20-46-36-15-22-22-49-19-75z"/><path fill="#d64026" d="M504 212c5-13 13 8 22 5v1h-3c-6 0-10-7-16-7-12 13-15 32-18 49 1 9 12 0 14 8 2 5 0 11-1 17l-2 5-1 1c-3-8-10-13-17-16-2-14-2-29 3-42 1-5-4-10 0-14l11-2z"/><path fill="#d31e0b" d="M507 211c6 0 10 7 16 7-7 8-3 22-3 32 3 15-11 24-18 35 1-6 3-12 1-17-2-8-13 1-14-8 3-17 6-36 18-49z"/><path fill="#280e06" d="M535 267c-5-18-7-51 18-55 2 5 8 3 12 2 15 9 12 30 11 45-1 5-9 15-12 6-8-12-19 9-29 2z"/><path fill="#841a30" d="M313 274c-7-19-12-41-4-61l1 3c-6 42 13 93 55 108 26 7 52-4 73-18l2 4c-20 12-42 26-67 20-30-4-48-31-60-56z"/><path fill="#c1300c" d="m577 214 9 4c2 19 3 39-9 55-9 12-17 28-33 31-2-9 5-15 5-24-9-2-17 9-22 15-5 9-16 8-22 14 1-7-12-12-6-18l1-1c5-7 4 7 12 2 6 0 8-5 11-9 11 2 19-9 29-10 6 8-6 17-2 24 9-1 15-11 19-18 11-14 16-33 11-51-2-5 2-11-3-14z"/><path fill="#fb6205" d="M655 215h8c-2 13 2 26-1 38-4 21-11 40-19 59 0-2 1-5-1-5-10 12-16 27-29 36 5-8 15-20 10-29-13 17-31 31-39 51-14-4-31 1-45-7-1-9 12-12 11-20-8-8-21-5-30-9 3-11-9-12-17-13l1-3c9-3 18-2 26-7 0 6-5 11-2 16 11 6 20-6 26-15 12-10 16-29 33-31 12-16 14-40 5-58h9c9 0 7 12 8 19 1 19-8 35-13 53-5 19-12 38-27 51-5 3 2 10 6 6 25-11 44-34 54-59 9-16 25-29 21-49 0-8-5-21 5-24z"/><path fill="#005977" d="M203 224c0-3 0-9 5-8l1 1 6 1v1h-3l-4 1c5 55 12 115 49 158h-11c-28-46-40-100-43-154Z"/><path fill="#ae1c39" d="M310 216c2 2 4 2 7 2-11 31 4 64 25 86 25 24 64 16 89-3l9 2-2 3c-21 14-47 25-73 18-42-15-61-66-55-108z"/><path fill="#0a1422" d="m217 219 2-1 10 7c-3 17 3 34 5 51-1 16 14 26 13 42 0 11 14 7 17 16 11 14 18 31 29 44h-17c-14-16-24-34-35-51-8-22-18-42-19-64-4-15 4-31-5-44z"/><path fill="#ab1302" d="M520 250c0-10-4-24 3-32h6c-6 17-3 35-2 52 5 10 18 3 25-1 8-4 8 8 7 13 2 5 7-1 10-3-4 7-10 17-19 18-4-7 8-16 2-24-10 1-18 12-29 10-3 4-5 9-11 9-8 5-7-9-12-2l2-5c7-11 21-20 18-35z"/><path fill="#ee410a" d="M586 218h6c9 18 7 42-5 58-17 2-21 21-33 31-6 9-15 21-26 15-3-5 2-10 2-16-8 5-17 4-26 7l1-4c6-6 17-5 22-14 5-6 13-17 22-15 0 9-7 15-5 24 16-3 24-19 33-31 12-16 11-36 9-55z"/><path fill="#003d5b" d="m208 220 4-1c6 27 3 56 13 83 6 29 23 53 40 76h-8c-37-43-44-103-49-158Z"/><path fill="#02243d" d="M212 219h5c9 13 1 29 5 44 1 22 11 42 19 64 11 17 21 35 35 51h-11c-17-23-34-47-40-76-10-27-7-56-13-83z"/><path fill="#e45b2a" d="M69 378c-15-33-15-72-7-106-2 18-3 36-1 53 3 19 12 35 14 53z"/><path fill="#cc6f66" d="M443 303c-8-20 20-39 35-24 3 10-1 19-10 24z"/><path fill="#b15e38" d="m478 279 4-4c7 3 14 8 17 16-6 6 7 11 6 18l-1 4-1 3c-4 4-9 6-14 8l-9 2h-1c3-9 12-16 11-26-7-3-15 2-22 3 9-5 13-14 10-24z"/><path fill="#02323a" d="M684 306c1-2 3-10 6-7 1 30-17 56-33 79h-12c14-24 29-46 39-72z"/><path fill="#775252" d="M468 303c7-1 15-6 22-3 1 10-8 17-11 26l-7 5h-4l1-5c1-4 5-8 2-11l-25-4-6-1-2-4 2-3z"/><path fill="#90110c" d="M0 302c13-8 16 9 18 18 1 20 7 39 7 58h-4c1-18-5-35-8-52-1-4 0-11-5-13l-7 11H0Z"/><path fill="#033245" d="M712 309c1-2 7-11 7-5-3 26-14 50-25 74h-12z"/><path fill="#f2842b" d="M613 343c13-9 19-24 29-36 2 0 1 3 1 5-9 26-26 48-46 66h-2c7-11 20-19 24-32-5-1-7 4-11 5z"/><path fill="#1c384f" d="m446 311 25 4c3 3-1 7-2 11-8 9-19 21-9 33 9 9 23 11 35 14 2 1 2 3 1 5h-15c-11-9-33-10-36-27-2-11 9-16 14-23 3-11-11-12-18-13z"/><path fill="#d61914" d="m1 324 7-11c5 2 4 9 5 13 3 17 9 34 8 52h-6c-5-18-2-40-14-54Z"/><path fill="#c53003" d="M584 365c8-20 26-34 39-51 5 9-5 21-10 29l-5 8-8 8-16 7z"/><path fill="#111c2f" d="m416 331 25-16c7 1 21 2 18 13-5 7-16 12-14 23 3 17 25 18 36 27h-59c-6-13-8-27-16-38 4-2 7-6 10-9z"/><path fill="#f39140" d="M503 316c8 1 20 2 17 13 9 4 22 1 30 9 1 8-12 11-11 20 14 8 31 3 45 7v1c-3 5-8 8-12 12h-49l-3-18c5-4 16-11 10-18-16 0-24-16-40-14l-1-4c5-2 10-4 14-8z"/><path fill="#e94433" d="M0 324h1c12 14 9 36 14 54H0Z"/><path fill="#c6a06e" d="m480 326 9-2 1 4c-6 5-5 14 2 17 10 4 17 14 28 15l3 18h-11c2-6 4-13-4-15-13-8-40-17-28-37z"/><path fill="#428380" d="M655 335c2-4 4-9 9-10 2 2 3 4 1 7-5 17-15 31-23 46h-13c10-13 18-28 26-43z"/><path fill="#246071" d="M460 359c-10-12 1-24 9-33l-1 5c-8 13 1 26 14 32 7 4 26 3 19 15h-5c1-2 1-4-1-5-12-3-26-5-35-14z"/><path fill="#8d987d" d="m472 331 7-5h1c-12 20 15 29 28 37 8 2 6 9 4 15h-6c1-4 4-11-3-12-14-6-36-16-31-35z"/><path fill="#f1aa63" d="M492 345c-7-3-8-12-2-17 16-2 24 14 40 14 6 7-5 14-10 18-11-1-18-11-28-15z"/><path fill="#508582" d="M468 331h4c-5 19 17 29 31 35 7 1 4 8 3 12h-5c7-12-12-11-19-15-13-6-22-19-14-32z"/><path fill="#202c2f" d="M619 378c13-15 23-32 36-46v3c-8 15-16 30-26 43z"/><path fill="#e6a660" d="M608 351c4-1 6-6 11-5-4 13-17 21-24 32h-9c3-7 9-13 14-19z"/><path fill="#79512e" d="m584 366 16-7c-5 6-11 12-14 19h-14c4-4 9-7 12-12z"/></svg>