<?xml version="1.0" encoding="UTF-8" ?>
<!DOCTYPE svg PUBLIC "-//W3C//DTD SVG 1.1//EN" "http://www.w3.org/Graphics/SVG/1.1/DTD/svg11.dtd">
<svg width="879pt" height="378pt" viewBox="0 0 879 378" version="1.1" xmlns="http://www.w3.org/2000/svg">
<g id="#ab2515ff">
<path fill="#ab2515" opacity="1.00" d=" M 0.00 0.00 L 14.11 0.00 C 7.45 10.03 5.85 22.35 0.00 32.69 L 0.00 0.00 Z" />
</g>
<g id="#ee6043ff">
<path fill="#ee6043" opacity="1.00" d=" M 14.11 0.00 L 28.27 0.00 C 18.29 20.62 10.35 42.10 0.00 62.54 L 0.00 32.69 C 5.85 22.35 7.45 10.03 14.11 0.00 Z" />
</g>
<g id="#8b1507ff">
<path fill="#8b1507" opacity="1.00" d=" M 28.27 0.00 L 35.09 0.00 C 26.08 17.71 17.45 35.78 12.07 54.99 C 11.74 57.01 13.96 56.91 15.22 56.26 C 26.31 49.45 28.42 33.29 40.78 28.12 C 46.19 33.92 40.29 42.84 38.23 49.15 C 28.48 74.41 16.67 99.13 12.02 126.03 C 10.59 135.36 4.95 142.75 0.00 150.42 L 0.00 143.40 C 10.65 108.92 23.44 74.91 35.90 40.94 C 36.55 33.55 26.76 42.14 27.06 46.06 C 15.14 59.30 6.64 75.13 0.00 91.59 L 0.00 62.54 C 10.35 42.10 18.29 20.62 28.27 0.00 Z" />
</g>
<g id="#4c0803ff">
<path fill="#4c0803" opacity="1.00" d=" M 35.09 0.00 L 40.39 0.00 C 36.82 10.12 30.61 19.40 28.94 30.12 C 37.00 27.06 42.51 15.93 52.56 19.50 C 54.61 29.87 46.86 38.90 44.69 48.65 C 32.20 76.81 22.34 106.22 15.14 136.15 C 12.26 141.38 6.28 151.34 9.85 155.77 C 16.56 147.10 27.31 154.12 26.46 163.56 C 20.75 198.18 19.87 233.50 12.96 267.96 C 4.72 285.47 20.89 300.52 22.40 317.51 C 25.28 337.72 30.57 357.58 31.95 378.00 L 25.08 378.00 C 25.43 358.50 19.36 339.67 17.59 320.33 C 16.33 311.27 12.89 293.97 0.00 301.99 L 0.00 279.47 C 14.10 260.63 10.21 235.20 15.34 213.33 C 15.47 196.08 20.95 177.90 17.85 161.14 C 7.19 158.42 6.90 175.36 0.00 180.53 L 0.00 150.42 C 4.95 142.75 10.59 135.36 12.02 126.03 C 16.67 99.13 28.48 74.41 38.23 49.15 C 40.29 42.84 46.19 33.92 40.78 28.12 C 28.42 33.29 26.31 49.45 15.22 56.26 C 13.96 56.91 11.74 57.01 12.07 54.99 C 17.45 35.78 26.08 17.71 35.09 0.00 Z" />
</g>
<g id="#1b0f07ff">
<path fill="#1b0f07" opacity="1.00" d=" M 40.39 0.00 L 100.08 0.00 C 91.07 19.30 80.61 37.92 72.97 57.86 C 68.34 66.87 63.41 77.29 64.61 87.38 C 75.91 90.64 82.49 78.55 89.18 71.84 C 86.35 81.36 82.31 90.56 80.09 100.22 C 75.73 113.22 69.66 125.55 65.79 138.72 C 59.21 154.91 54.33 171.86 50.71 188.82 C 48.99 211.17 41.76 237.28 55.89 257.16 C 54.62 297.24 42.16 339.21 58.22 378.00 L 31.95 378.00 C 30.57 357.58 25.28 337.72 22.40 317.51 C 20.89 300.52 4.72 285.47 12.96 267.96 C 19.87 233.50 20.75 198.18 26.46 163.56 C 27.31 154.12 16.56 147.10 9.85 155.77 C 6.28 151.34 12.26 141.38 15.14 136.15 C 22.34 106.22 32.20 76.81 44.69 48.65 C 46.86 38.90 54.61 29.87 52.56 19.50 C 42.51 15.93 37.00 27.06 28.94 30.12 C 30.61 19.40 36.82 10.12 40.39 0.00 Z" />
</g>
<g id="#8a5328ff">
<path fill="#8a5328" opacity="1.00" d=" M 100.08 0.00 L 103.07 0.00 C 94.88 16.26 86.47 32.44 79.13 49.11 C 78.10 51.82 76.02 54.80 77.78 57.68 C 78.25 58.93 78.95 60.07 79.62 61.22 C 76.91 66.62 75.00 72.55 70.92 77.14 C 63.12 75.71 73.59 64.12 72.97 57.86 C 80.61 37.92 91.07 19.30 100.08 0.00 Z" />
</g>
<g id="#e68e36ff">
<path fill="#e68e36" opacity="1.00" d=" M 103.07 0.00 L 117.37 0.00 C 101.55 17.35 91.63 39.11 77.78 57.68 C 76.02 54.80 78.10 51.82 79.13 49.11 C 86.47 32.44 94.88 16.26 103.07 0.00 Z" />
</g>
<g id="#d5510bff">
<path fill="#d5510b" opacity="1.00" d=" M 117.37 0.00 L 122.22 0.00 C 107.47 20.02 93.73 40.78 79.62 61.22 C 78.95 60.07 78.25 58.93 77.78 57.68 C 91.63 39.11 101.55 17.35 117.37 0.00 Z" />
</g>
<g id="#951702ff">
<path fill="#951702" opacity="1.00" d=" M 122.22 0.00 L 129.28 0.00 C 121.40 10.92 116.20 23.54 109.39 35.14 C 109.22 33.82 108.75 32.64 107.99 31.61 C 93.80 45.12 87.57 66.25 70.92 77.14 C 75.00 72.55 76.91 66.62 79.62 61.22 C 93.73 40.78 107.47 20.02 122.22 0.00 Z" />
</g>
<g id="#a24d22ff">
<path fill="#a24d22" opacity="1.00" d=" M 129.28 0.00 L 130.30 0.00 C 129.44 1.55 128.56 3.10 127.73 4.67 C 98.63 62.14 68.60 121.04 56.70 184.86 C 54.07 191.12 55.34 198.18 54.61 204.77 C 48.90 220.04 64.88 230.37 62.64 245.00 C 62.63 248.46 62.01 252.00 63.26 255.35 C 62.67 260.77 62.33 266.21 61.71 271.63 C 53.54 306.41 53.56 345.40 69.33 378.00 L 65.25 378.00 C 43.70 337.87 58.79 289.89 60.09 245.99 C 60.78 240.66 54.23 239.54 52.68 235.32 C 46.38 202.41 57.01 169.87 65.79 138.72 C 69.66 125.55 75.73 113.22 80.09 100.22 C 90.41 78.81 99.53 56.78 109.39 35.14 C 116.20 23.54 121.40 10.92 129.28 0.00 Z" />
</g>
<g id="#ff991bff">
<path fill="#ff991b" opacity="1.00" d=" M 130.30 0.00 L 199.33 0.00 C 177.93 31.51 160.20 65.15 145.17 100.05 C 132.70 123.70 125.09 150.83 125.69 177.68 C 121.03 194.41 133.56 209.34 130.29 226.06 C 126.73 263.76 121.42 303.29 135.38 339.61 C 138.58 352.51 141.17 365.66 146.27 378.00 L 112.90 378.00 C 111.93 372.41 112.32 367.66 118.91 367.90 C 119.84 357.53 118.70 346.61 120.79 336.10 C 114.68 334.40 118.38 321.46 118.81 315.01 C 116.09 302.48 118.97 289.66 116.83 277.07 C 115.74 268.79 115.34 260.26 119.65 252.77 C 123.89 229.19 113.07 205.49 119.00 181.97 C 120.21 157.74 128.42 131.96 119.02 108.89 C 111.27 104.74 105.16 113.10 102.07 119.01 C 95.24 128.99 93.99 141.34 89.28 152.28 C 89.16 147.10 89.24 141.92 88.83 136.76 C 81.35 145.78 73.94 155.50 72.63 167.62 C 71.77 169.60 69.65 170.50 67.59 170.27 C 73.38 146.58 87.96 126.29 93.48 102.42 C 97.31 78.63 112.04 58.77 118.68 35.77 C 120.69 24.10 132.07 16.02 132.03 3.98 C 130.58 4.12 129.15 4.38 127.73 4.67 C 128.56 3.10 129.44 1.55 130.30 0.00 Z" />
</g>
<g id="#e15408ff">
<path fill="#e15408" opacity="1.00" d=" M 199.33 0.00 L 205.36 0.00 C 178.47 38.74 150.27 79.41 140.02 126.13 C 150.13 121.03 152.21 105.61 160.06 96.90 L 161.11 97.22 C 158.75 105.83 153.63 113.51 152.96 122.64 C 142.11 127.01 145.17 148.03 133.06 152.14 C 130.80 133.72 141.05 117.39 145.17 100.05 C 160.20 65.15 177.93 31.51 199.33 0.00 Z" />
</g>
<g id="#a41f02ff">
<path fill="#a41f02" opacity="1.00" d=" M 205.36 0.00 L 211.58 0.00 C 196.72 19.96 180.89 39.48 170.08 62.04 C 162.88 72.14 156.24 82.86 153.01 94.95 C 156.63 100.38 161.39 88.49 165.00 85.82 C 163.69 89.66 161.43 93.08 160.06 96.90 C 152.21 105.61 150.13 121.03 140.02 126.13 C 150.27 79.41 178.47 38.74 205.36 0.00 Z" />
</g>
<g id="#640d04ff">
<path fill="#640d04" opacity="1.00" d=" M 211.58 0.00 L 218.36 0.00 C 205.93 15.79 197.08 33.93 186.94 51.16 C 178.93 62.25 171.64 73.86 165.00 85.82 C 161.39 88.49 156.63 100.38 153.01 94.95 C 156.24 82.86 162.88 72.14 170.08 62.04 C 180.89 39.48 196.72 19.96 211.58 0.00 Z" />
</g>
<g id="#3b362bff">
<path fill="#3b362b" opacity="1.00" d=" M 218.36 0.00 L 242.32 0.00 C 239.81 2.55 237.30 5.10 234.99 7.84 C 231.64 10.37 228.37 13.02 225.47 16.06 C 224.88 12.51 220.67 14.75 218.66 15.72 C 205.70 25.21 197.55 39.49 186.94 51.16 C 197.08 33.93 205.93 15.79 218.36 0.00 Z" />
</g>
<g id="#3c0d09ff">
<path fill="#3c0d09" opacity="1.00" d=" M 242.32 0.00 L 248.23 0.00 C 235.84 20.94 218.39 38.58 207.58 60.62 C 178.21 110.97 158.88 167.33 152.29 225.32 C 150.07 194.19 159.99 164.06 165.91 133.87 C 176.14 101.75 191.91 71.60 211.03 44.00 C 214.82 29.15 232.41 22.67 234.99 7.84 C 237.30 5.10 239.81 2.55 242.32 0.00 Z" />
</g>
<g id="#32202dff">
<path fill="#32202d" opacity="1.00" d=" M 248.23 0.00 L 253.26 0.00 C 211.58 50.59 181.35 110.21 164.59 173.62 C 156.53 203.12 151.46 234.42 159.44 264.51 C 164.55 302.75 172.56 340.78 182.28 378.00 L 178.17 378.00 C 162.21 328.75 152.83 277.08 152.29 225.32 C 158.88 167.33 178.21 110.97 207.58 60.62 C 218.39 38.58 235.84 20.94 248.23 0.00 Z" />
</g>
<g id="#28425aff">
<path fill="#28425a" opacity="1.00" d=" M 253.26 0.00 L 257.27 0.00 C 215.85 49.86 183.98 107.85 167.80 170.85 C 151.58 223.44 166.46 278.06 175.45 330.55 C 179.07 346.45 183.68 362.10 187.32 378.00 L 182.28 378.00 C 172.56 340.78 164.55 302.75 159.44 264.51 C 151.46 234.42 156.53 203.12 164.59 173.62 C 181.35 110.21 211.58 50.59 253.26 0.00 Z" />
</g>
<g id="#216581ff">
<path fill="#216581" opacity="1.00" d=" M 257.27 0.00 L 262.25 0.00 C 228.89 40.17 200.15 84.49 183.10 134.11 C 165.98 177.99 165.65 225.64 171.23 271.82 C 172.94 308.31 183.61 343.49 194.32 378.00 L 187.32 378.00 C 183.68 362.10 179.07 346.45 175.45 330.55 C 166.46 278.06 151.58 223.44 167.80 170.85 C 183.98 107.85 215.85 49.86 257.27 0.00 Z" />
</g>
<g id="#097e97ff">
<path fill="#097e97" opacity="1.00" d=" M 262.25 0.00 L 320.41 0.00 C 306.33 22.37 284.80 37.96 268.18 58.17 C 239.14 87.49 220.71 125.92 209.36 165.26 C 208.91 168.35 209.62 172.69 213.60 172.42 L 214.30 172.91 C 213.39 172.96 211.57 173.05 210.66 173.10 C 205.59 171.87 206.38 165.73 207.88 161.87 C 216.59 137.44 225.74 112.74 239.63 90.67 C 248.63 73.09 264.00 60.12 274.86 43.87 C 276.57 41.09 276.88 36.10 272.30 38.24 C 261.47 45.64 256.34 58.92 246.07 67.03 C 221.41 105.58 200.91 147.22 188.02 191.11 C 181.07 204.00 180.97 217.61 179.71 231.80 C 169.51 281.82 183.23 332.54 204.07 378.00 L 194.32 378.00 C 183.61 343.49 172.94 308.31 171.23 271.82 C 165.65 225.64 165.98 177.99 183.10 134.11 C 200.15 84.49 228.89 40.17 262.25 0.00 M 275.03 17.10 C 238.50 44.03 213.52 83.66 196.22 125.15 C 191.79 141.70 181.38 158.77 186.26 175.91 C 193.65 175.44 192.71 163.41 195.57 158.64 C 203.87 135.38 214.79 113.40 227.03 92.00 C 239.61 66.98 259.33 46.99 274.88 23.91 C 276.86 22.38 280.60 15.22 275.03 17.10 Z" />
</g>
<g id="#006177ff">
<path fill="#006177" opacity="1.00" d=" M 320.41 0.00 L 353.63 0.00 C 292.57 31.76 236.17 83.10 215.98 150.99 C 215.61 158.01 209.65 165.57 213.60 172.42 C 209.62 172.69 208.91 168.35 209.36 165.26 C 220.71 125.92 239.14 87.49 268.18 58.17 C 284.80 37.96 306.33 22.37 320.41 0.00 Z" />
</g>
<g id="#073d58ff">
<path fill="#073d58" opacity="1.00" d=" M 353.63 0.00 L 386.62 0.00 C 369.89 10.88 351.28 19.80 337.18 34.24 C 320.44 44.53 303.91 56.04 291.16 71.07 C 284.07 76.28 276.96 82.57 273.82 91.04 C 307.37 59.62 347.69 33.95 393.10 24.20 C 420.89 17.06 449.34 24.99 477.43 25.53 C 487.81 31.69 502.20 24.81 510.47 35.50 C 517.34 38.92 520.40 48.73 513.71 53.80 C 499.76 59.78 485.76 53.69 472.16 51.10 C 463.47 55.36 453.23 58.35 446.77 65.93 C 455.15 77.50 470.09 82.46 476.36 95.68 C 480.64 108.86 464.77 115.46 458.21 124.22 C 453.45 131.32 443.94 136.71 443.85 145.97 C 442.30 145.99 440.75 146.02 439.21 145.97 C 436.55 145.01 429.41 141.83 433.94 139.02 C 441.61 137.81 443.53 130.16 447.37 124.53 C 456.09 119.31 464.73 112.82 470.75 104.61 C 474.34 87.07 452.49 83.56 440.71 77.27 C 431.49 78.04 425.69 71.95 420.91 64.87 C 421.62 59.48 427.74 56.78 431.48 53.52 C 452.30 51.03 472.88 37.89 493.92 45.86 C 501.37 45.13 496.59 36.92 491.03 38.47 C 484.01 41.74 477.36 36.67 470.96 34.10 C 386.27 11.36 295.92 57.05 248.78 127.79 C 243.60 130.86 248.74 121.01 250.28 119.28 C 272.50 74.94 314.31 46.78 351.61 16.54 C 353.54 14.36 349.51 12.44 347.62 13.55 C 319.00 21.18 296.84 42.21 275.12 61.08 C 253.51 79.43 238.44 103.83 225.76 128.84 C 220.60 142.72 212.36 158.62 216.86 173.11 C 216.22 173.06 214.94 172.96 214.30 172.91 L 213.60 172.42 C 209.65 165.57 215.61 158.01 215.98 150.99 C 236.17 83.10 292.57 31.76 353.63 0.00 Z" />
</g>
<g id="#074d69ff">
<path fill="#074d69" opacity="1.00" d=" M 386.62 0.00 L 403.66 0.00 C 391.54 6.78 377.03 10.30 367.02 20.10 C 362.87 20.07 350.01 29.21 361.82 27.88 C 398.61 9.26 441.27 18.44 480.75 16.38 C 492.44 19.13 506.78 19.19 516.46 26.45 C 521.88 35.46 534.45 46.23 525.27 57.27 C 508.96 63.76 490.18 59.76 473.11 59.09 C 464.54 61.16 463.18 74.05 469.97 79.03 C 477.35 86.44 484.08 95.00 483.25 106.16 C 470.39 118.15 460.78 132.80 449.77 146.14 C 447.79 146.06 445.82 146.01 443.85 145.97 C 443.94 136.71 453.45 131.32 458.21 124.22 C 464.77 115.46 480.64 108.86 476.36 95.68 C 470.09 82.46 455.15 77.50 446.77 65.93 C 453.23 58.35 463.47 55.36 472.16 51.10 C 485.76 53.69 499.76 59.78 513.71 53.80 C 520.40 48.73 517.34 38.92 510.47 35.50 C 502.20 24.81 487.81 31.69 477.43 25.53 C 449.34 24.99 420.89 17.06 393.10 24.20 C 347.69 33.95 307.37 59.62 273.82 91.04 C 276.96 82.57 284.07 76.28 291.16 71.07 C 303.91 56.04 320.44 44.53 337.18 34.24 C 351.28 19.80 369.89 10.88 386.62 0.00 Z" />
</g>
<g id="#026079ff">
<path fill="#026079" opacity="1.00" d=" M 403.66 0.00 L 500.28 0.00 C 511.69 4.89 525.75 1.95 536.27 9.80 C 554.24 17.00 577.57 17.88 590.28 34.69 C 595.89 31.15 601.78 37.93 606.64 34.65 C 619.75 19.42 636.98 34.11 650.75 40.27 C 658.73 47.45 662.65 58.47 672.53 63.56 C 719.67 118.53 740.07 195.72 724.81 266.83 C 715.73 292.08 707.18 317.77 695.99 342.13 C 712.61 294.58 732.94 245.57 723.99 194.01 C 721.11 170.51 715.49 145.24 700.64 126.42 C 689.00 118.09 689.00 102.23 678.32 92.77 C 675.56 86.03 663.62 68.65 658.86 82.88 C 651.06 92.08 666.94 97.57 665.31 107.82 C 676.94 121.04 676.20 139.41 685.07 153.97 C 692.72 175.10 696.92 197.23 701.76 218.88 C 698.19 249.93 703.68 282.29 692.26 312.28 C 697.19 291.35 691.37 270.35 694.25 249.17 C 697.19 203.34 685.69 156.43 661.88 117.14 C 649.31 108.56 641.99 88.50 624.40 90.28 C 620.04 90.22 616.12 87.43 611.65 88.15 C 611.19 87.57 610.73 86.98 610.29 86.39 C 612.04 78.72 604.88 75.15 600.24 70.74 C 596.42 63.30 591.99 56.07 588.26 48.70 C 572.23 41.34 557.71 18.96 538.19 30.18 C 536.60 40.69 542.39 56.64 529.01 62.94 C 511.24 65.70 493.23 66.78 475.19 67.24 C 473.60 77.84 485.16 86.39 485.13 97.10 C 484.50 100.12 484.26 103.23 483.25 106.16 C 484.08 95.00 477.35 86.44 469.97 79.03 C 463.18 74.05 464.54 61.16 473.11 59.09 C 490.18 59.76 508.96 63.76 525.27 57.27 C 534.45 46.23 521.88 35.46 516.46 26.45 C 506.78 19.19 492.44 19.13 480.75 16.38 C 441.27 18.44 398.61 9.26 361.82 27.88 C 350.01 29.21 362.87 20.07 367.02 20.10 C 377.03 10.30 391.54 6.78 403.66 0.00 Z" />
</g>
<g id="#04516cff">
<path fill="#04516c" opacity="1.00" d=" M 500.28 0.00 L 616.59 0.00 C 617.31 8.08 632.52 2.57 625.14 9.95 C 634.76 18.43 645.21 25.88 655.66 33.38 C 695.82 73.29 721.85 126.65 729.25 182.82 C 732.87 220.74 732.97 259.01 732.05 297.00 C 726.61 324.81 718.70 352.25 706.72 378.00 L 694.49 378.00 C 705.23 354.35 715.54 329.82 719.02 304.00 C 718.69 298.08 713.45 307.18 712.21 309.23 C 701.86 332.01 692.74 355.47 681.70 378.00 L 678.51 378.00 C 684.14 365.97 690.41 354.20 695.99 342.13 C 707.18 317.77 715.73 292.08 724.81 266.83 C 740.07 195.72 719.67 118.53 672.53 63.56 C 662.65 58.47 658.73 47.45 650.75 40.27 C 636.98 34.11 619.75 19.42 606.64 34.65 C 601.78 37.93 595.89 31.15 590.28 34.69 C 577.57 17.88 554.24 17.00 536.27 9.80 C 525.75 1.95 511.69 4.89 500.28 0.00 Z" />
</g>
<g id="#01405bff">
<path fill="#01405b" opacity="1.00" d=" M 616.59 0.00 L 639.30 0.00 C 671.17 35.44 703.68 74.05 717.26 120.81 C 728.62 153.64 734.34 188.19 735.19 222.93 C 737.01 254.42 740.45 286.38 729.89 316.97 C 724.21 337.80 717.72 358.36 708.72 378.00 L 706.72 378.00 C 718.70 352.25 726.61 324.81 732.05 297.00 C 732.97 259.01 732.87 220.74 729.25 182.82 C 721.85 126.65 695.82 73.29 655.66 33.38 C 645.21 25.88 634.76 18.43 625.14 9.95 C 632.52 2.57 617.31 8.08 616.59 0.00 Z" />
</g>
<g id="#012e45ff">
<path fill="#012e45" opacity="1.00" d=" M 639.30 0.00 L 653.94 0.00 C 666.89 22.13 686.65 39.63 697.87 63.04 C 712.60 83.79 717.72 108.96 725.13 132.85 C 737.35 179.38 741.15 227.84 740.67 275.79 C 735.53 310.96 725.36 345.54 710.83 378.00 L 708.72 378.00 C 717.72 358.36 724.21 337.80 729.89 316.97 C 740.45 286.38 737.01 254.42 735.19 222.93 C 734.34 188.19 728.62 153.64 717.26 120.81 C 703.68 74.05 671.17 35.44 639.30 0.00 Z" />
</g>
<g id="#021e2eff">
<path fill="#021e2e" opacity="1.00" d=" M 653.94 0.00 L 664.68 0.00 C 676.39 20.17 692.32 36.87 704.06 56.93 C 732.45 111.14 737.89 173.30 745.82 233.04 C 748.88 267.82 741.72 302.50 730.08 335.11 C 726.24 349.83 721.65 364.44 714.65 378.00 L 710.83 378.00 C 725.36 345.54 735.53 310.96 740.67 275.79 C 741.15 227.84 737.35 179.38 725.13 132.85 C 717.72 108.96 712.60 83.79 697.87 63.04 C 686.65 39.63 666.89 22.13 653.94 0.00 Z" />
</g>
<g id="#07121aff">
<path fill="#07121a" opacity="1.00" d=" M 664.68 0.00 L 678.48 0.00 C 685.97 12.35 691.99 25.20 702.86 34.85 C 714.61 37.34 712.60 54.15 716.98 63.01 C 724.96 76.57 727.99 92.27 734.18 106.85 C 737.58 130.79 746.50 153.23 746.51 177.47 C 750.56 216.66 758.78 257.74 747.92 297.06 C 749.63 317.92 734.92 333.71 731.19 353.15 C 728.93 361.73 725.27 369.83 721.90 378.00 L 714.65 378.00 C 721.65 364.44 726.24 349.83 730.08 335.11 C 741.72 302.50 748.88 267.82 745.82 233.04 C 737.89 173.30 732.45 111.14 704.06 56.93 C 692.32 36.87 676.39 20.17 664.68 0.00 Z" />
</g>
<g id="#100e0cff">
<path fill="#100e0c" opacity="1.00" d=" M 678.48 0.00 L 781.64 0.00 C 797.67 54.86 813.37 109.88 823.87 165.92 C 820.54 182.93 831.52 198.83 829.05 215.99 C 831.72 248.89 821.45 280.57 816.69 312.80 C 811.89 335.38 802.70 356.51 794.86 378.00 L 721.90 378.00 C 725.27 369.83 728.93 361.73 731.19 353.15 C 734.92 333.71 749.63 317.92 747.92 297.06 C 758.78 257.74 750.56 216.66 746.51 177.47 C 746.50 153.23 737.58 130.79 734.18 106.85 C 727.99 92.27 724.96 76.57 716.98 63.01 C 712.60 54.15 714.61 37.34 702.86 34.85 C 691.99 25.20 685.97 12.35 678.48 0.00 Z" />
</g>
<g id="#2e0e06ff">
<path fill="#2e0e06" opacity="1.00" d=" M 781.64 0.00 L 786.75 0.00 C 804.89 51.34 813.42 105.43 828.35 157.66 C 827.44 175.02 833.10 191.52 835.50 208.50 C 834.58 266.38 819.70 323.78 800.75 378.00 L 794.86 378.00 C 802.70 356.51 811.89 335.38 816.69 312.80 C 821.45 280.57 831.72 248.89 829.05 215.99 C 831.52 198.83 820.54 182.93 823.87 165.92 C 813.37 109.88 797.67 54.86 781.64 0.00 Z" />
</g>
<g id="#54100bff">
<path fill="#54100b" opacity="1.00" d=" M 786.75 0.00 L 791.59 0.00 C 803.74 28.56 806.26 60.29 817.43 89.34 C 819.54 114.21 829.05 137.53 833.23 161.96 C 833.39 178.52 839.14 194.48 839.83 211.06 C 837.08 265.62 821.92 318.51 808.97 371.12 C 820.54 367.55 822.66 351.74 832.70 347.17 C 838.02 356.82 830.82 368.16 828.68 378.00 L 800.75 378.00 C 819.70 323.78 834.58 266.38 835.50 208.50 C 833.10 191.52 827.44 175.02 828.35 157.66 C 813.42 105.43 804.89 51.34 786.75 0.00 Z" />
</g>
<g id="#801412ff">
<path fill="#801412" opacity="1.00" d=" M 791.59 0.00 L 795.77 0.00 C 806.83 14.24 805.11 33.31 812.81 49.13 C 814.28 64.39 820.70 78.53 823.43 93.51 C 824.27 120.35 838.16 144.61 838.49 171.51 C 851.33 230.47 829.44 289.24 820.16 346.74 C 827.06 350.45 830.50 332.98 838.27 336.68 C 842.99 350.24 835.24 364.69 831.67 378.00 L 828.68 378.00 C 830.82 368.16 838.02 356.82 832.70 347.17 C 822.66 351.74 820.54 367.55 808.97 371.12 C 821.92 318.51 837.08 265.62 839.83 211.06 C 839.14 194.48 833.39 178.52 833.23 161.96 C 829.05 137.53 819.54 114.21 817.43 89.34 C 806.26 60.29 803.74 28.56 791.59 0.00 Z" />
</g>
<g id="#a9151bff">
<path fill="#a9151b" opacity="1.00" d=" M 795.77 0.00 L 803.64 0.00 C 809.80 8.44 810.71 18.97 812.18 28.95 C 829.86 69.95 828.73 116.31 845.53 157.52 C 844.28 172.78 847.49 187.72 848.86 202.92 C 845.51 243.53 837.14 283.46 829.39 323.37 C 827.26 331.07 836.90 324.40 839.26 322.15 C 846.45 319.06 845.34 327.91 845.50 331.58 C 846.85 348.02 838.66 362.53 834.84 378.00 L 831.67 378.00 C 835.24 364.69 842.99 350.24 838.27 336.68 C 830.50 332.98 827.06 350.45 820.16 346.74 C 829.44 289.24 851.33 230.47 838.49 171.51 C 838.16 144.61 824.27 120.35 823.43 93.51 C 820.70 78.53 814.28 64.39 812.81 49.13 C 805.11 33.31 806.83 14.24 795.77 0.00 Z" />
</g>
<g id="#ca1526ff">
<path fill="#ca1526" opacity="1.00" d=" M 803.64 0.00 L 819.78 0.00 C 822.41 5.65 822.16 15.57 829.88 16.11 C 831.16 18.18 830.52 22.61 833.30 19.04 C 831.68 31.22 827.11 43.84 830.84 56.02 C 834.06 69.91 838.41 83.66 838.71 98.05 C 836.47 114.69 856.67 123.72 851.99 141.01 C 864.29 185.35 852.27 232.73 847.92 277.98 C 847.96 296.81 853.95 315.65 850.58 334.51 C 849.13 349.74 842.00 363.43 837.97 378.00 L 834.84 378.00 C 838.66 362.53 846.85 348.02 845.50 331.58 C 845.34 327.91 846.45 319.06 839.26 322.15 C 836.90 324.40 827.26 331.07 829.39 323.37 C 837.14 283.46 845.51 243.53 848.86 202.92 C 847.49 187.72 844.28 172.78 845.53 157.52 C 828.73 116.31 829.86 69.95 812.18 28.95 C 810.71 18.97 809.80 8.44 803.64 0.00 Z" />
</g>
<g id="#dc1736ff">
<path fill="#dc1736" opacity="1.00" d=" M 819.78 0.00 L 879.00 0.00 L 879.00 378.00 L 837.97 378.00 C 842.00 363.43 849.13 349.74 850.58 334.51 C 853.95 315.65 847.96 296.81 847.92 277.98 C 852.27 232.73 864.29 185.35 851.99 141.01 C 856.67 123.72 836.47 114.69 838.71 98.05 C 838.41 83.66 834.06 69.91 830.84 56.02 C 827.11 43.84 831.68 31.22 833.30 19.04 C 830.52 22.61 831.16 18.18 829.88 16.11 C 822.16 15.57 822.41 5.65 819.78 0.00 Z" />
</g>
<g id="#f2a248ff">
<path fill="#f2a248" opacity="1.00" d=" M 127.73 4.67 C 129.15 4.38 130.58 4.12 132.03 3.98 C 132.07 16.02 120.69 24.10 118.68 35.77 C 112.04 58.77 97.31 78.63 93.48 102.42 C 87.96 126.29 73.38 146.58 67.59 170.27 C 61.37 173.03 63.43 184.68 56.70 184.86 C 68.60 121.04 98.63 62.14 127.73 4.67 Z" />
</g>
<g id="#681007ff">
<path fill="#681007" opacity="1.00" d=" M 225.47 16.06 C 228.37 13.02 231.64 10.37 234.99 7.84 C 232.41 22.67 214.82 29.15 211.03 44.00 C 191.91 71.60 176.14 101.75 165.91 133.87 C 159.99 164.06 150.07 194.19 152.29 225.32 C 152.83 277.08 162.21 328.75 178.17 378.00 L 172.31 378.00 C 164.50 349.34 154.72 320.97 152.86 291.05 C 152.52 258.34 142.86 225.87 149.34 193.22 C 154.17 158.46 162.10 123.83 177.16 91.99 C 189.45 64.42 207.23 39.89 225.47 16.06 Z" />
</g>
<g id="#0b2c43ff">
<path fill="#0b2c43" opacity="1.00" d=" M 347.62 13.55 C 349.51 12.44 353.54 14.36 351.61 16.54 C 314.31 46.78 272.50 74.94 250.28 119.28 C 248.74 121.01 243.60 130.86 248.78 127.79 C 295.92 57.05 386.27 11.36 470.96 34.10 C 477.36 36.67 484.01 41.74 491.03 38.47 C 496.59 36.92 501.37 45.13 493.92 45.86 C 472.88 37.89 452.30 51.03 431.48 53.52 C 427.74 56.78 421.62 59.48 420.91 64.87 C 425.69 71.95 431.49 78.04 440.71 77.27 C 452.49 83.56 474.34 87.07 470.75 104.61 C 464.73 112.82 456.09 119.31 447.37 124.53 C 443.53 130.16 441.61 137.81 433.94 139.02 C 429.41 141.83 436.55 145.01 439.21 145.97 C 434.47 146.03 429.93 144.59 425.31 143.80 C 414.03 141.00 423.44 125.84 413.04 121.14 C 420.10 115.52 429.37 105.61 438.43 113.45 C 446.34 111.00 464.96 109.62 460.98 97.08 C 452.07 85.39 434.55 88.79 422.83 82.22 C 417.79 78.51 405.40 78.29 407.44 69.35 C 398.72 62.38 411.80 54.88 416.02 48.94 C 421.12 44.20 414.02 39.62 409.36 40.55 C 356.87 34.13 309.75 64.93 274.32 100.27 C 258.15 120.75 242.26 142.14 232.44 166.42 C 229.40 170.50 233.14 170.81 235.17 171.82 C 231.61 171.65 227.90 171.75 225.12 174.18 C 223.46 175.64 221.33 176.11 219.17 176.18 C 218.41 175.14 217.63 174.12 216.86 173.11 C 212.36 158.62 220.60 142.72 225.76 128.84 C 238.44 103.83 253.51 79.43 275.12 61.08 C 296.84 42.21 319.00 21.18 347.62 13.55 M 327.30 26.28 C 307.68 36.32 290.38 50.28 274.24 65.25 C 245.20 93.10 218.44 130.01 218.03 171.97 C 223.77 173.25 217.55 163.17 224.17 162.14 C 232.11 148.66 234.77 131.65 245.56 119.60 C 266.17 82.89 297.97 53.83 330.83 27.79 C 332.15 25.13 328.81 25.93 327.30 26.28 Z" />
</g>
<g id="#93683bff">
<path fill="#93683b" opacity="1.00" d=" M 218.66 15.72 C 220.67 14.75 224.88 12.51 225.47 16.06 C 207.23 39.89 189.45 64.42 177.16 91.99 C 176.60 92.26 175.48 92.79 174.92 93.05 C 183.16 71.52 197.77 53.16 208.08 32.88 C 201.98 33.18 199.27 39.75 195.57 43.57 C 181.49 59.67 172.07 79.02 161.11 97.22 L 160.06 96.90 C 161.43 93.08 163.69 89.66 165.00 85.82 C 171.64 73.86 178.93 62.25 186.94 51.16 C 197.55 39.49 205.70 25.21 218.66 15.72 Z" />
</g>
<g id="#056982ff">
<path fill="#056982" opacity="1.00" d=" M 275.03 17.10 C 280.60 15.22 276.86 22.38 274.88 23.91 C 259.33 46.99 239.61 66.98 227.03 92.00 C 214.79 113.40 203.87 135.38 195.57 158.64 C 192.71 163.41 193.65 175.44 186.26 175.91 C 181.38 158.77 191.79 141.70 196.22 125.15 C 213.52 83.66 238.50 44.03 275.03 17.10 M 245.95 51.18 C 239.84 52.45 237.46 58.48 233.36 62.37 C 214.47 86.62 200.36 115.16 193.12 145.07 C 190.77 158.10 199.71 144.01 200.89 139.85 C 214.12 110.26 228.60 80.96 247.32 54.36 C 248.37 52.83 248.68 49.76 245.95 51.18 Z" />
</g>
<g id="#041e2dff">
<path fill="#041e2d" opacity="1.00" d=" M 327.30 26.28 C 328.81 25.93 332.15 25.13 330.83 27.79 C 297.97 53.83 266.17 82.89 245.56 119.60 C 234.77 131.65 232.11 148.66 224.17 162.14 C 217.55 163.17 223.77 173.25 218.03 171.97 C 218.44 130.01 245.20 93.10 274.24 65.25 C 290.38 50.28 307.68 36.32 327.30 26.28 Z" />
</g>
<g id="#087485ff">
<path fill="#087485" opacity="1.00" d=" M 538.19 30.18 C 557.71 18.96 572.23 41.34 588.26 48.70 C 591.99 56.07 596.42 63.30 600.24 70.74 C 604.88 75.15 612.04 78.72 610.29 86.39 C 591.97 73.65 572.20 54.80 547.83 60.86 C 538.58 67.38 527.20 68.50 516.29 67.26 C 509.15 75.46 496.24 77.30 491.80 87.87 C 490.32 91.45 488.32 94.81 485.13 97.10 C 485.16 86.39 473.60 77.84 475.19 67.24 C 493.23 66.78 511.24 65.70 529.01 62.94 C 542.39 56.64 536.60 40.69 538.19 30.18 Z" />
</g>
<g id="#551306ff">
<path fill="#551306" opacity="1.00" d=" M 70.92 77.14 C 87.57 66.25 93.80 45.12 107.99 31.61 C 108.75 32.64 109.22 33.82 109.39 35.14 C 99.53 56.78 90.41 78.81 80.09 100.22 C 82.31 90.56 86.35 81.36 89.18 71.84 C 82.49 78.55 75.91 90.64 64.61 87.38 C 63.41 77.29 68.34 66.87 72.97 57.86 C 73.59 64.12 63.12 75.71 70.92 77.14 Z" />
</g>
<g id="#e89c57ff">
<path fill="#e89c57" opacity="1.00" d=" M 195.57 43.57 C 199.27 39.75 201.98 33.18 208.08 32.88 C 197.77 53.16 183.16 71.52 174.92 93.05 C 170.32 102.74 165.21 112.41 162.66 122.88 C 159.41 122.95 156.18 123.04 152.96 122.64 C 153.63 113.51 158.75 105.83 161.11 97.22 C 172.07 79.02 181.49 59.67 195.57 43.57 Z" />
</g>
<g id="#c14026ff">
<path fill="#c14026" opacity="1.00" d=" M 27.06 46.06 C 26.76 42.14 36.55 33.55 35.90 40.94 C 23.44 74.91 10.65 108.92 0.00 143.40 L 0.00 133.56 C 10.01 109.67 17.00 84.55 26.30 60.35 C 27.20 57.40 28.47 52.48 24.29 54.21 C 12.98 67.35 6.21 83.60 0.00 99.60 L 0.00 91.59 C 6.64 75.13 15.14 59.30 27.06 46.06 Z" />
</g>
<g id="#0489a3ff">
<path fill="#0489a3" opacity="1.00" d=" M 272.30 38.24 C 276.88 36.10 276.57 41.09 274.86 43.87 C 264.00 60.12 248.63 73.09 239.63 90.67 C 225.74 112.74 216.59 137.44 207.88 161.87 C 206.38 165.73 205.59 171.87 210.66 173.10 L 211.14 173.61 C 205.83 186.16 210.62 202.36 208.94 216.18 L 208.95 217.04 C 208.64 216.76 208.01 216.20 207.70 215.92 C 207.86 205.28 208.93 194.47 206.85 183.95 C 203.37 183.09 202.23 187.04 201.66 189.66 C 195.26 229.67 198.24 270.18 207.35 309.51 C 208.62 326.12 218.75 339.15 225.19 353.75 C 227.92 362.28 232.23 370.14 236.45 378.00 L 204.07 378.00 C 183.23 332.54 169.51 281.82 179.71 231.80 C 180.97 217.61 181.07 204.00 188.02 191.11 C 200.91 147.22 221.41 105.58 246.07 67.03 C 256.34 58.92 261.47 45.64 272.30 38.24 Z" />
</g>
<g id="#0c1b29ff">
<path fill="#0c1b29" opacity="1.00" d=" M 274.32 100.27 C 309.75 64.93 356.87 34.13 409.36 40.55 C 414.02 39.62 421.12 44.20 416.02 48.94 C 411.80 54.88 398.72 62.38 407.44 69.35 C 405.40 78.29 417.79 78.51 422.83 82.22 C 434.55 88.79 452.07 85.39 460.98 97.08 C 464.96 109.62 446.34 111.00 438.43 113.45 C 429.37 105.61 420.10 115.52 413.04 121.14 C 407.34 120.19 401.55 119.93 395.79 119.81 C 404.79 114.29 417.21 109.75 419.04 98.15 C 408.62 83.57 387.92 86.66 375.19 75.54 C 372.26 63.43 396.07 68.82 390.75 55.33 C 383.96 46.27 372.33 50.66 363.01 49.27 C 305.12 67.60 257.38 116.02 239.56 173.16 C 238.10 172.71 236.63 172.26 235.17 171.82 C 233.14 170.81 229.40 170.50 232.44 166.42 C 242.26 142.14 258.15 120.75 274.32 100.27 Z" />
</g>
<g id="#131010ff">
<path fill="#131010" opacity="1.00" d=" M 239.56 173.16 C 257.38 116.02 305.12 67.60 363.01 49.27 C 372.33 50.66 383.96 46.27 390.75 55.33 C 396.07 68.82 372.26 63.43 375.19 75.54 C 387.92 86.66 408.62 83.57 419.04 98.15 C 417.21 109.75 404.79 114.29 395.79 119.81 C 385.73 125.03 375.98 130.91 365.84 135.92 C 358.32 137.05 366.02 126.17 360.80 123.19 C 351.98 118.68 344.88 128.79 339.21 134.21 C 331.18 144.21 324.05 156.06 321.59 168.76 C 313.41 172.64 304.58 167.10 296.72 170.67 C 284.15 170.36 271.76 173.90 259.23 172.11 C 255.62 180.24 260.48 190.60 257.02 198.42 C 251.48 189.85 246.84 180.44 239.56 173.16 Z" />
</g>
<g id="#024a5fff">
<path fill="#024a5f" opacity="1.00" d=" M 245.95 51.18 C 248.68 49.76 248.37 52.83 247.32 54.36 C 228.60 80.96 214.12 110.26 200.89 139.85 C 199.71 144.01 190.77 158.10 193.12 145.07 C 200.36 115.16 214.47 86.62 233.36 62.37 C 237.46 58.48 239.84 52.45 245.95 51.18 Z" />
</g>
<g id="#f4734dff">
<path fill="#f4734d" opacity="1.00" d=" M 24.29 54.21 C 28.47 52.48 27.20 57.40 26.30 60.35 C 17.00 84.55 10.01 109.67 0.00 133.56 L 0.00 99.60 C 6.21 83.60 12.98 67.35 24.29 54.21 Z" />
</g>
<g id="#2f7b7eff">
<path fill="#2f7b7e" opacity="1.00" d=" M 547.83 60.86 C 572.20 54.80 591.97 73.65 610.29 86.39 C 610.73 86.98 611.19 87.57 611.65 88.15 C 613.38 91.50 615.80 94.46 617.08 98.03 C 614.64 96.05 611.96 94.41 609.19 92.95 C 593.00 79.88 573.37 64.42 551.21 69.32 C 538.80 74.08 524.32 68.32 512.97 76.95 C 492.86 83.63 493.78 108.76 478.75 120.72 C 469.62 128.60 466.49 142.11 454.89 147.18 C 453.18 146.85 451.48 146.48 449.77 146.14 C 460.78 132.80 470.39 118.15 483.25 106.16 C 484.26 103.23 484.50 100.12 485.13 97.10 C 488.32 94.81 490.32 91.45 491.80 87.87 C 496.24 77.30 509.15 75.46 516.29 67.26 C 527.20 68.50 538.58 67.38 547.83 60.86 Z" />
</g>
<g id="#5d8c7cff">
<path fill="#5d8c7c" opacity="1.00" d=" M 551.21 69.32 C 573.37 64.42 593.00 79.88 609.19 92.95 C 605.49 92.26 601.97 90.91 598.41 89.76 C 583.26 73.56 559.02 73.69 538.68 76.47 C 525.61 75.60 509.78 79.98 503.52 92.57 C 495.51 100.42 495.26 113.09 486.01 120.02 C 474.43 128.83 471.65 145.90 457.10 151.10 C 456.38 149.78 455.64 148.48 454.89 147.18 C 466.49 142.11 469.62 128.60 478.75 120.72 C 493.78 108.76 492.86 83.63 512.97 76.95 C 524.32 68.32 538.80 74.08 551.21 69.32 Z" />
</g>
<g id="#919673ff">
<path fill="#919673" opacity="1.00" d=" M 538.68 76.47 C 559.02 73.69 583.26 73.56 598.41 89.76 C 597.91 90.98 597.41 92.21 596.91 93.43 C 580.37 80.00 557.64 79.73 537.48 80.44 C 524.06 81.07 509.68 87.50 505.19 101.15 C 495.27 119.99 479.37 134.90 467.72 152.69 C 464.30 155.20 460.12 156.17 455.89 155.95 C 456.28 154.33 456.68 152.71 457.10 151.10 C 471.65 145.90 474.43 128.83 486.01 120.02 C 495.26 113.09 495.51 100.42 503.52 92.57 C 509.78 79.98 525.61 75.60 538.68 76.47 Z" />
</g>
<g id="#04778dff">
<path fill="#04778d" opacity="1.00" d=" M 658.86 82.88 C 663.62 68.65 675.56 86.03 678.32 92.77 C 689.00 102.23 689.00 118.09 700.64 126.42 C 715.49 145.24 721.11 170.51 723.99 194.01 C 732.94 245.57 712.61 294.58 695.99 342.13 C 690.41 354.20 684.14 365.97 678.51 378.00 L 660.68 378.00 C 674.17 357.71 687.55 336.59 692.26 312.28 C 703.68 282.29 698.19 249.93 701.76 218.88 C 696.92 197.23 692.72 175.10 685.07 153.97 C 676.20 139.41 676.94 121.04 665.31 107.82 C 666.94 97.57 651.06 92.08 658.86 82.88 Z" />
</g>
<g id="#bfa26dff">
<path fill="#bfa26d" opacity="1.00" d=" M 537.48 80.44 C 557.64 79.73 580.37 80.00 596.91 93.43 C 597.23 93.80 597.88 94.53 598.20 94.90 C 587.19 93.64 576.17 87.50 565.05 90.05 C 548.50 84.47 531.97 91.54 517.25 98.31 C 509.87 120.24 484.02 131.69 480.88 154.99 C 476.72 153.25 472.16 153.03 467.72 152.69 C 479.37 134.90 495.27 119.99 505.19 101.15 C 509.68 87.50 524.06 81.07 537.48 80.44 Z" />
</g>
<g id="#e6a864ff">
<path fill="#e6a864" opacity="1.00" d=" M 517.25 98.31 C 531.97 91.54 548.50 84.47 565.05 90.05 C 564.40 106.23 545.41 114.82 531.85 118.87 C 518.81 121.62 522.78 138.81 514.36 146.43 C 505.12 150.94 497.19 159.63 485.83 157.22 C 484.17 156.49 482.52 155.74 480.88 154.99 C 484.02 131.69 509.87 120.24 517.25 98.31 Z" />
</g>
<g id="#145361ff">
<path fill="#145361" opacity="1.00" d=" M 611.65 88.15 C 616.12 87.43 620.04 90.22 624.40 90.28 C 641.99 88.50 649.31 108.56 661.88 117.14 C 685.69 156.43 697.19 203.34 694.25 249.17 C 691.37 270.35 697.19 291.35 692.26 312.28 C 687.55 336.59 674.17 357.71 660.68 378.00 L 656.69 378.00 C 672.83 354.58 690.68 328.91 689.89 299.22 C 686.70 295.68 685.39 303.87 683.71 305.67 C 674.34 331.60 658.77 354.44 644.81 378.00 L 641.57 378.00 C 649.62 362.80 659.66 348.50 665.06 332.03 C 667.19 329.22 666.11 326.61 664.14 324.62 C 686.34 292.00 694.52 250.51 688.54 211.62 C 682.68 171.13 671.79 123.60 632.32 102.71 C 627.74 100.83 622.67 100.71 618.01 99.07 C 617.78 98.81 617.31 98.29 617.08 98.03 C 615.80 94.46 613.38 91.50 611.65 88.15 Z" />
</g>
<g id="#e29449ff">
<path fill="#e29449" opacity="1.00" d=" M 565.05 90.05 C 576.17 87.50 587.19 93.64 598.20 94.90 C 600.48 96.91 602.75 98.90 605.07 100.90 C 592.43 98.25 579.70 101.23 569.71 109.37 C 557.04 110.26 548.27 119.99 536.77 123.78 C 526.36 135.65 523.32 153.53 509.00 162.00 C 502.65 164.53 503.23 172.59 507.13 176.96 C 510.92 174.47 512.97 169.28 518.00 168.80 C 510.02 173.34 505.87 188.73 516.05 192.99 C 523.34 197.81 535.92 192.16 540.40 201.57 C 541.52 211.17 524.23 212.26 520.84 205.20 C 526.51 207.97 538.25 211.00 539.04 202.13 C 533.22 193.96 519.44 200.44 512.29 192.79 C 508.21 191.92 510.92 182.96 506.63 185.59 C 500.90 187.81 507.37 194.15 507.72 198.21 C 513.07 198.43 520.81 197.92 520.84 205.20 C 518.40 201.17 506.95 197.96 509.88 205.05 C 514.45 215.31 527.25 215.88 537.06 215.06 C 533.49 216.09 529.88 216.91 526.18 217.07 C 516.75 220.19 508.72 199.33 503.87 211.91 C 501.84 214.30 498.75 215.55 496.02 216.98 C 493.94 217.04 491.88 216.99 489.81 216.98 C 498.46 215.46 508.35 208.59 505.63 198.47 C 503.90 182.23 483.48 192.61 476.93 181.91 C 478.39 174.69 491.17 174.23 494.55 180.41 C 496.98 185.57 509.24 186.64 505.07 178.02 C 500.73 167.41 487.83 166.51 477.95 167.97 C 482.32 166.90 486.81 165.92 490.83 163.80 C 489.34 161.48 487.60 159.33 485.83 157.22 C 497.19 159.63 505.12 150.94 514.36 146.43 C 522.78 138.81 518.81 121.62 531.85 118.87 C 545.41 114.82 564.40 106.23 565.05 90.05 Z" />
</g>
<g id="#846840ff">
<path fill="#846840" opacity="1.00" d=" M 598.41 89.76 C 601.97 90.91 605.49 92.26 609.19 92.95 C 611.96 94.41 614.64 96.05 617.08 98.03 C 617.31 98.29 617.78 98.81 618.01 99.07 C 621.28 102.80 624.81 106.29 628.26 109.87 C 627.79 111.93 627.27 113.98 626.84 116.04 C 619.94 111.41 614.59 104.40 606.51 101.74 C 606.15 101.53 605.43 101.11 605.07 100.90 C 602.75 98.90 600.48 96.91 598.20 94.90 C 597.88 94.53 597.23 93.80 596.91 93.43 C 597.41 92.21 597.91 90.98 598.41 89.76 Z" />
</g>
<g id="#a11903ff">
<path fill="#a11903" opacity="1.00" d=" M 174.92 93.05 C 175.48 92.79 176.60 92.26 177.16 91.99 C 162.10 123.83 154.17 158.46 149.34 193.22 C 142.86 225.87 152.52 258.34 152.86 291.05 C 154.72 320.97 164.50 349.34 172.31 378.00 L 167.90 378.00 C 161.85 352.84 151.75 328.48 150.61 302.34 C 148.03 286.12 151.31 269.13 144.63 253.65 C 139.11 218.38 147.87 183.18 153.81 148.70 C 156.60 140.04 159.96 131.56 162.66 122.88 C 165.21 112.41 170.32 102.74 174.92 93.05 Z" />
</g>
<g id="#1f4047ff">
<path fill="#1f4047" opacity="1.00" d=" M 618.01 99.07 C 622.67 100.71 627.74 100.83 632.32 102.71 C 671.79 123.60 682.68 171.13 688.54 211.62 C 694.52 250.51 686.34 292.00 664.14 324.62 C 659.38 326.34 657.22 330.84 655.12 335.10 C 655.08 334.32 654.99 332.77 654.94 331.99 C 655.21 331.50 655.74 330.50 656.01 330.00 C 684.30 291.08 695.30 237.76 680.66 191.49 C 679.56 171.08 669.06 152.80 660.00 135.04 C 653.37 126.42 645.28 116.25 633.63 115.23 C 631.83 113.43 630.04 111.65 628.26 109.87 C 624.81 106.29 621.28 102.80 618.01 99.07 Z" />
</g>
<g id="#fe7e0fff">
<path fill="#fe7e0f" opacity="1.00" d=" M 125.69 177.68 C 125.09 150.83 132.70 123.70 145.17 100.05 C 141.05 117.39 130.80 133.72 133.06 152.14 C 145.17 148.03 142.11 127.01 152.96 122.64 C 156.18 123.04 159.41 122.95 162.66 122.88 C 159.96 131.56 156.60 140.04 153.81 148.70 C 152.56 151.29 151.56 153.99 150.85 156.78 C 140.16 189.62 134.38 224.14 133.67 258.68 C 131.21 280.26 135.19 301.97 142.99 321.98 C 145.65 340.94 150.41 359.48 155.15 378.00 L 146.27 378.00 C 141.17 365.66 138.58 352.51 135.38 339.61 C 121.42 303.29 126.73 263.76 130.29 226.06 C 133.56 209.34 121.03 194.41 125.69 177.68 Z" />
</g>
<g id="#ec8427ff">
<path fill="#ec8427" opacity="1.00" d=" M 569.71 109.37 C 579.70 101.23 592.43 98.25 605.07 100.90 C 605.43 101.11 606.15 101.53 606.51 101.74 C 605.91 104.66 605.06 107.52 603.86 110.25 L 603.13 110.26 C 594.05 108.22 585.64 112.18 579.37 118.36 C 568.32 123.78 553.74 120.63 544.00 130.06 C 535.17 139.16 531.79 152.28 525.12 162.88 C 530.64 167.00 540.31 166.28 547.17 169.71 C 548.14 172.45 548.97 175.27 549.01 178.20 C 543.85 166.43 528.85 166.44 518.00 168.80 C 512.97 169.28 510.92 174.47 507.13 176.96 C 503.23 172.59 502.65 164.53 509.00 162.00 C 523.32 153.53 526.36 135.65 536.77 123.78 C 548.27 119.99 557.04 110.26 569.71 109.37 Z" />
</g>
<g id="#c14b12ff">
<path fill="#c14b12" opacity="1.00" d=" M 606.51 101.74 C 614.59 104.40 619.94 111.41 626.84 116.04 C 633.92 130.59 646.61 141.56 651.88 157.15 C 653.51 161.75 656.19 166.35 661.17 167.78 C 648.64 164.28 655.35 180.85 653.46 187.62 C 654.14 194.57 648.08 188.16 649.39 184.23 C 649.59 182.56 649.78 180.90 649.91 179.23 C 653.27 162.14 642.90 145.38 629.98 135.01 C 624.92 122.93 614.61 116.26 603.86 110.25 C 605.06 107.52 605.91 104.66 606.51 101.74 Z" />
</g>
<g id="#ffa32dff">
<path fill="#ffa32d" opacity="1.00" d=" M 102.07 119.01 C 105.16 113.10 111.27 104.74 119.02 108.89 C 128.42 131.96 120.21 157.74 119.00 181.97 C 113.07 205.49 123.89 229.19 119.65 252.77 C 115.34 260.26 115.74 268.79 116.83 277.07 C 118.97 289.66 116.09 302.48 118.81 315.01 C 118.38 321.46 114.68 334.40 120.79 336.10 C 118.70 346.61 119.84 357.53 118.91 367.90 C 112.32 367.66 111.93 372.41 112.90 378.00 L 87.19 378.00 C 84.12 354.52 74.11 332.40 71.10 309.04 C 72.34 298.20 64.18 288.54 67.62 277.60 C 74.94 235.85 78.98 193.46 89.28 152.28 C 93.99 141.34 95.24 128.99 102.07 119.01 Z" />
</g>
<g id="#fa6b03ff">
<path fill="#fa6b03" opacity="1.00" d=" M 579.37 118.36 C 585.64 112.18 594.05 108.22 603.13 110.26 C 588.53 113.51 595.76 129.71 604.42 135.70 C 615.08 138.65 619.44 149.10 628.66 154.38 C 637.26 161.24 645.00 169.27 649.91 179.23 C 649.78 180.90 649.59 182.56 649.39 184.23 C 644.95 175.02 636.14 162.12 624.27 167.23 C 614.96 173.61 605.11 162.94 594.92 165.62 C 594.55 165.68 593.81 165.79 593.44 165.85 C 584.43 162.60 577.51 171.02 569.21 172.61 C 565.05 168.27 555.50 163.49 552.86 171.87 C 550.99 171.07 549.08 170.36 547.17 169.71 C 540.31 166.28 530.64 167.00 525.12 162.88 C 531.79 152.28 535.17 139.16 544.00 130.06 C 553.74 120.63 568.32 123.78 579.37 118.36 Z" />
</g>
<g id="#ee4e03ff">
<path fill="#ee4e03" opacity="1.00" d=" M 603.13 110.26 L 603.86 110.25 C 614.61 116.26 624.92 122.93 629.98 135.01 C 642.90 145.38 653.27 162.14 649.91 179.23 C 645.00 169.27 637.26 161.24 628.66 154.38 C 619.44 149.10 615.08 138.65 604.42 135.70 C 595.76 129.71 588.53 113.51 603.13 110.26 Z" />
</g>
<g id="#743113ff">
<path fill="#743113" opacity="1.00" d=" M 628.26 109.87 C 630.04 111.65 631.83 113.43 633.63 115.23 C 636.71 119.48 639.99 123.60 643.05 127.87 C 654.57 151.18 671.62 170.65 666.13 197.59 L 665.17 198.10 C 664.18 188.75 666.45 178.87 664.24 169.77 C 663.96 169.50 663.41 168.96 663.14 168.69 C 662.65 168.46 661.66 168.00 661.17 167.78 C 656.19 166.35 653.51 161.75 651.88 157.15 C 646.61 141.56 633.92 130.59 626.84 116.04 C 627.27 113.98 627.79 111.93 628.26 109.87 Z" />
</g>
<g id="#202624ff">
<path fill="#202624" opacity="1.00" d=" M 633.63 115.23 C 645.28 116.25 653.37 126.42 660.00 135.04 C 669.06 152.80 679.56 171.08 680.66 191.49 C 695.30 237.76 684.30 291.08 656.01 330.00 C 659.84 310.49 674.99 294.77 677.57 274.59 C 683.44 249.25 685.56 222.20 676.65 197.32 C 675.63 170.74 660.66 146.99 643.05 127.87 C 639.99 123.60 636.71 119.48 633.63 115.23 Z" />
</g>
<g id="#40141aff">
<path fill="#40141a" opacity="1.00" d=" M 365.84 135.92 C 375.98 130.91 385.73 125.03 395.79 119.81 C 401.55 119.93 407.34 120.19 413.04 121.14 C 423.44 125.84 414.03 141.00 425.31 143.80 C 424.20 144.26 423.09 144.72 421.99 145.19 C 418.68 144.85 406.73 146.25 409.44 139.41 C 411.17 135.31 416.59 126.84 409.56 125.29 C 389.67 124.30 371.53 136.21 357.94 149.92 C 347.59 159.87 351.74 139.75 350.87 133.99 C 337.38 135.15 331.83 150.17 327.11 161.12 C 325.92 164.41 327.48 169.16 322.80 169.93 C 314.02 172.01 305.68 173.18 296.72 170.67 C 304.58 167.10 313.41 172.64 321.59 168.76 C 324.05 156.06 331.18 144.21 339.21 134.21 C 344.88 128.79 351.98 118.68 360.80 123.19 C 366.02 126.17 358.32 137.05 365.84 135.92 Z" />
</g>
<g id="#701821ff">
<path fill="#701821" opacity="1.00" d=" M 357.94 149.92 C 371.53 136.21 389.67 124.30 409.56 125.29 C 416.59 126.84 411.17 135.31 409.44 139.41 C 406.73 146.25 418.68 144.85 421.99 145.19 C 421.98 146.76 421.99 148.33 422.00 149.91 C 415.69 149.01 409.09 149.66 402.95 148.07 C 396.99 142.97 409.91 135.19 404.62 130.23 C 382.60 128.90 365.58 145.90 351.63 160.68 C 341.92 162.75 347.85 148.20 341.22 145.05 C 335.35 149.01 332.38 156.51 330.03 162.92 C 330.81 167.91 337.96 164.85 340.40 168.77 C 335.96 169.29 331.22 168.14 326.98 169.92 C 325.59 169.93 324.19 169.93 322.80 169.93 C 327.48 169.16 325.92 164.41 327.11 161.12 C 331.83 150.17 337.38 135.15 350.87 133.99 C 351.74 139.75 347.59 159.87 357.94 149.92 Z" />
</g>
<g id="#331107ff">
<path fill="#331107" opacity="1.00" d=" M 643.05 127.87 C 660.66 146.99 675.63 170.74 676.65 197.32 C 685.56 222.20 683.44 249.25 677.57 274.59 C 674.99 294.77 659.84 310.49 656.01 330.00 C 655.74 330.50 655.21 331.50 654.94 331.99 C 642.14 345.80 632.03 363.29 619.46 378.00 L 612.54 378.00 C 631.65 355.04 642.28 326.69 654.98 300.03 C 676.09 270.68 678.21 230.92 666.13 197.59 C 671.62 170.65 654.57 151.18 643.05 127.87 Z" />
</g>
<g id="#9f1b29ff">
<path fill="#9f1b29" opacity="1.00" d=" M 351.63 160.68 C 365.58 145.90 382.60 128.90 404.62 130.23 C 409.91 135.19 396.99 142.97 402.95 148.07 C 409.09 149.66 415.69 149.01 422.00 149.91 C 429.18 153.15 437.58 153.27 444.13 157.94 C 428.51 153.45 412.43 154.12 396.41 154.80 C 386.98 151.29 402.98 134.53 389.04 138.00 C 372.05 142.55 360.17 156.64 350.08 170.19 C 342.40 170.87 334.67 169.82 326.98 169.92 C 331.22 168.14 335.96 169.29 340.40 168.77 C 337.96 164.85 330.81 167.91 330.03 162.92 C 332.38 156.51 335.35 149.01 341.22 145.05 C 347.85 148.20 341.92 162.75 351.63 160.68 Z" />
</g>
<g id="#fc7e2eff">
<path fill="#fc7e2e" opacity="1.00" d=" M 72.63 167.62 C 73.94 155.50 81.35 145.78 88.83 136.76 C 89.24 141.92 89.16 147.10 89.28 152.28 C 78.98 193.46 74.94 235.85 67.62 277.60 C 64.18 288.54 72.34 298.20 71.10 309.04 C 74.11 332.40 84.12 354.52 87.19 378.00 L 75.19 378.00 C 73.00 359.71 63.81 343.52 60.58 325.49 C 58.89 307.55 60.28 289.53 61.71 271.63 C 62.33 266.21 62.67 260.77 63.26 255.35 C 66.45 231.85 72.24 208.79 76.54 185.51 C 75.72 183.00 79.87 171.79 74.68 174.70 C 66.16 184.41 64.88 198.25 57.00 208.34 C 56.14 207.19 55.36 205.99 54.61 204.77 C 55.34 198.18 54.07 191.12 56.70 184.86 C 63.43 184.68 61.37 173.03 67.59 170.27 C 69.65 170.50 71.77 169.60 72.63 167.62 Z" />
</g>
<g id="#c92637ff">
<path fill="#c92637" opacity="1.00" d=" M 350.08 170.19 C 360.17 156.64 372.05 142.55 389.04 138.00 C 402.98 134.53 386.98 151.29 396.41 154.80 C 412.43 154.12 428.51 153.45 444.13 157.94 C 446.44 158.44 448.79 158.91 451.15 159.33 C 448.54 171.62 436.25 165.24 428.73 169.72 C 423.34 177.73 422.84 188.17 418.01 196.52 C 411.19 186.96 413.74 164.15 396.04 168.94 C 390.24 168.76 391.12 174.82 390.78 179.00 C 386.92 179.01 388.58 172.29 384.57 171.49 C 373.60 167.65 361.39 168.13 350.08 170.19 Z" />
</g>
<g id="#5d260aff">
<path fill="#5d260a" opacity="1.00" d=" M 50.71 188.82 C 54.33 171.86 59.21 154.91 65.79 138.72 C 57.01 169.87 46.38 202.41 52.68 235.32 C 54.23 239.54 60.78 240.66 60.09 245.99 C 58.79 289.89 43.70 337.87 65.25 378.00 L 58.22 378.00 C 42.16 339.21 54.62 297.24 55.89 257.16 C 41.76 237.28 48.99 211.17 50.71 188.82 Z" />
</g>
<g id="#6d3f53ff">
<path fill="#6d3f53" opacity="1.00" d=" M 421.99 145.19 C 423.09 144.72 424.20 144.26 425.31 143.80 C 429.93 144.59 434.47 146.03 439.21 145.97 C 440.75 146.02 442.30 145.99 443.85 145.97 C 445.82 146.01 447.79 146.06 449.77 146.14 C 451.48 146.48 453.18 146.85 454.89 147.18 C 455.64 148.48 456.38 149.78 457.10 151.10 C 456.68 152.71 456.28 154.33 455.89 155.95 C 454.30 157.06 452.72 158.19 451.15 159.33 C 448.79 158.91 446.44 158.44 444.13 157.94 C 437.58 153.27 429.18 153.15 422.00 149.91 C 421.99 148.33 421.98 146.76 421.99 145.19 Z" />
</g>
<g id="#d62f02ff">
<path fill="#d62f02" opacity="1.00" d=" M 150.85 156.78 C 151.56 153.99 152.56 151.29 153.81 148.70 C 147.87 183.18 139.11 218.38 144.63 253.65 C 151.31 269.13 148.03 286.12 150.61 302.34 C 151.75 328.48 161.85 352.84 167.90 378.00 L 163.16 378.00 C 152.74 346.87 147.54 314.61 143.90 282.05 C 133.34 240.66 142.32 197.65 150.85 156.78 Z" />
</g>
<g id="#d07d54ff">
<path fill="#d07d54" opacity="1.00" d=" M 455.89 155.95 C 460.12 156.17 464.30 155.20 467.72 152.69 C 472.16 153.03 476.72 153.25 480.88 154.99 C 482.52 155.74 484.17 156.49 485.83 157.22 C 487.60 159.33 489.34 161.48 490.83 163.80 C 486.81 165.92 482.32 166.90 477.95 167.97 C 468.37 170.18 464.21 181.32 467.21 189.77 C 472.84 199.59 485.33 196.57 494.52 199.55 C 499.45 210.52 482.07 210.92 477.85 204.19 C 475.08 199.22 463.27 196.83 465.98 205.89 C 469.64 215.45 480.39 218.70 489.81 216.98 C 491.88 216.99 493.94 217.04 496.02 216.98 C 492.37 217.76 488.73 218.44 485.04 218.97 C 468.39 216.46 450.66 219.83 434.78 215.29 C 437.67 215.39 440.75 216.61 443.54 215.50 C 443.96 200.56 444.90 185.30 443.49 170.43 C 423.12 162.71 426.34 190.55 418.89 200.01 C 408.21 192.59 414.31 164.51 394.11 171.03 C 390.15 182.60 394.37 197.99 391.90 211.00 C 390.91 216.30 397.12 215.36 400.75 214.86 C 403.57 207.00 401.12 198.15 402.10 189.94 C 411.31 194.43 405.86 219.39 421.74 214.89 C 426.05 207.57 428.19 199.12 431.93 191.51 C 436.73 197.77 432.67 207.54 434.78 215.29 C 429.73 212.11 436.90 199.72 430.43 200.24 C 429.22 204.80 426.50 208.73 425.15 213.23 C 422.51 220.05 409.98 217.76 409.54 210.39 C 406.87 206.54 407.61 199.66 403.11 197.77 C 401.33 203.61 406.33 212.61 400.62 216.84 C 395.39 217.87 390.14 215.13 385.03 217.13 C 382.82 217.05 380.61 216.56 378.75 215.33 C 394.56 220.06 386.55 199.42 385.17 191.18 C 389.67 184.12 388.66 172.76 378.83 171.19 C 369.57 172.02 358.80 168.60 350.15 172.14 C 347.26 184.74 350.24 198.74 348.22 211.88 C 348.47 217.92 361.84 216.26 357.89 208.96 C 352.83 194.99 368.12 194.70 376.74 198.26 C 378.99 203.58 377.44 209.72 378.75 215.33 C 375.91 211.93 377.21 206.94 376.10 202.88 C 376.43 195.09 364.61 200.57 360.16 199.03 C 358.55 204.90 363.66 215.23 355.75 217.73 C 343.04 214.68 330.06 219.99 317.02 218.13 C 314.45 218.16 311.95 217.55 309.73 216.26 C 309.95 213.39 310.28 210.56 310.57 207.71 C 307.11 221.83 324.73 214.11 332.02 216.08 C 336.18 216.91 348.82 216.48 343.76 209.29 C 337.25 204.55 317.13 214.44 321.02 199.13 C 325.10 193.59 335.50 197.60 341.59 195.51 C 344.27 183.02 329.00 191.81 322.65 187.32 C 329.11 188.73 345.75 181.63 344.13 194.02 C 342.03 205.20 318.63 189.69 322.17 204.73 C 329.08 208.89 340.60 202.19 347.09 209.02 C 347.00 199.12 347.18 189.22 346.84 179.34 C 340.28 184.05 319.73 174.18 322.65 187.32 C 313.39 171.26 345.78 186.53 344.01 173.03 C 338.12 170.70 328.30 172.47 320.79 171.85 C 322.85 171.22 324.92 170.58 326.98 169.92 C 334.67 169.82 342.40 170.87 350.08 170.19 C 361.39 168.13 373.60 167.65 384.57 171.49 C 388.58 172.29 386.92 179.01 390.78 179.00 C 391.12 174.82 390.24 168.76 396.04 168.94 C 413.74 164.15 411.19 186.96 418.01 196.52 C 422.84 188.17 423.34 177.73 428.73 169.72 C 436.25 165.24 448.54 171.62 451.15 159.33 C 452.72 158.19 454.30 157.06 455.89 155.95 M 455.36 169.26 C 451.73 170.20 450.19 174.58 451.03 178.00 C 451.85 190.08 449.12 203.07 452.33 214.68 C 467.38 221.83 461.04 199.55 461.97 191.99 C 461.18 185.50 467.60 167.56 455.36 169.26 Z" />
</g>
<g id="#f85602ff">
<path fill="#f85602" opacity="1.00" d=" M 133.67 258.68 C 134.38 224.14 140.16 189.62 150.85 156.78 C 142.32 197.65 133.34 240.66 143.90 282.05 C 147.54 314.61 152.74 346.87 163.16 378.00 L 155.15 378.00 C 150.41 359.48 145.65 340.94 142.99 321.98 C 135.19 301.97 131.21 280.26 133.67 258.68 Z" />
</g>
<g id="#7d1007ff">
<path fill="#7d1007" opacity="1.00" d=" M 0.00 180.53 C 6.90 175.36 7.19 158.42 17.85 161.14 C 20.95 177.90 15.47 196.08 15.34 213.33 C 10.21 235.20 14.10 260.63 0.00 279.47 L 0.00 265.68 C 11.70 239.58 10.13 209.81 14.89 181.94 C 15.46 178.36 16.71 165.80 9.67 169.70 C 5.75 174.90 4.16 181.53 0.00 186.61 L 0.00 180.53 Z" />
</g>
<g id="#e49136ff">
<path fill="#e49136" opacity="1.00" d=" M 569.21 172.61 C 577.51 171.02 584.43 162.60 593.44 165.85 C 584.44 168.87 573.28 171.53 569.16 181.17 C 565.53 191.99 568.60 204.34 577.28 211.81 C 590.62 220.75 612.80 216.23 618.30 200.15 C 623.75 200.11 618.23 211.09 624.42 212.81 C 638.93 216.11 627.07 193.24 634.08 188.98 C 644.64 194.63 646.60 214.25 661.73 212.90 C 667.35 199.78 662.21 183.82 664.24 169.77 C 666.45 178.87 664.18 188.75 665.17 198.10 C 664.75 203.74 666.31 210.02 662.99 215.05 C 660.36 215.09 657.74 215.15 655.15 215.21 C 648.73 213.43 641.63 194.83 636.40 206.38 C 634.87 213.88 626.46 219.02 619.95 213.13 C 613.34 209.68 607.33 216.70 600.82 217.70 C 597.81 217.79 594.92 217.93 591.96 218.00 C 589.98 218.00 588.00 218.04 586.03 218.06 C 582.94 216.78 579.90 215.41 576.89 213.96 C 571.30 210.45 569.07 204.31 566.03 198.87 C 563.55 201.98 566.20 208.96 563.95 213.52 L 563.10 213.13 C 563.01 199.78 564.88 186.45 563.89 173.12 C 563.01 168.65 555.84 168.18 554.58 172.65 C 553.48 181.76 554.13 191.04 553.75 200.22 C 552.65 190.80 553.05 181.32 552.86 171.87 C 555.50 163.49 565.05 168.27 569.21 172.61 Z" />
</g>
<g id="#ec9434ff">
<path fill="#ec9434" opacity="1.00" d=" M 594.92 165.62 C 605.11 162.94 614.96 173.61 624.27 167.23 C 636.14 162.12 644.95 175.02 649.39 184.23 C 648.08 188.16 654.14 194.57 653.46 187.62 C 655.35 180.85 648.64 164.28 661.17 167.78 C 661.66 168.00 662.65 168.46 663.14 168.69 C 646.18 165.22 660.95 189.04 653.00 194.97 C 644.51 188.05 642.61 174.21 632.55 168.40 C 622.70 166.21 620.55 177.66 619.94 185.18 C 614.68 175.27 606.58 167.59 594.92 165.62 Z" />
</g>
<g id="#fcc66dff">
<path fill="#fcc66d" opacity="1.00" d=" M 593.44 165.85 C 593.81 165.79 594.55 165.68 594.92 165.62 C 606.58 167.59 614.68 175.27 619.94 185.18 C 620.55 177.66 622.70 166.21 632.55 168.40 C 642.61 174.21 644.51 188.05 653.00 194.97 C 660.95 189.04 646.18 165.22 663.14 168.69 C 663.41 168.96 663.96 169.50 664.24 169.77 C 662.21 183.82 667.35 199.78 661.73 212.90 C 646.60 214.25 644.64 194.63 634.08 188.98 C 627.07 193.24 638.93 216.11 624.42 212.81 C 618.23 211.09 623.75 200.11 618.30 200.15 C 612.80 216.23 590.62 220.75 577.28 211.81 C 568.60 204.34 565.53 191.99 569.16 181.17 C 573.28 171.53 584.44 168.87 593.44 165.85 M 588.41 177.34 C 575.25 181.88 575.82 204.99 590.34 207.67 C 599.10 208.27 609.10 200.91 607.04 191.02 C 608.74 180.67 597.37 174.64 588.41 177.34 Z" />
</g>
<g id="#fbc484ff">
<path fill="#fbc484" opacity="1.00" d=" M 467.21 189.77 C 464.21 181.32 468.37 170.18 477.95 167.97 C 487.83 166.51 500.73 167.41 505.07 178.02 C 509.24 186.64 496.98 185.57 494.55 180.41 C 491.17 174.23 478.39 174.69 476.93 181.91 C 483.48 192.61 503.90 182.23 505.63 198.47 C 508.35 208.59 498.46 215.46 489.81 216.98 C 480.39 218.70 469.64 215.45 465.98 205.89 C 463.27 196.83 475.08 199.22 477.85 204.19 C 482.07 210.92 499.45 210.52 494.52 199.55 C 485.33 196.57 472.84 199.59 467.21 189.77 Z" />
</g>
<g id="#fcc378ff">
<path fill="#fcc378" opacity="1.00" d=" M 518.00 168.80 C 528.85 166.44 543.85 166.43 549.01 178.20 C 550.44 190.76 537.90 181.37 534.00 177.00 C 529.40 173.55 517.73 177.30 521.63 184.29 C 529.82 187.31 540.12 185.68 547.03 191.95 C 552.57 201.04 547.39 213.03 537.06 215.06 C 527.25 215.88 514.45 215.31 509.88 205.05 C 506.95 197.96 518.40 201.17 520.84 205.20 C 524.23 212.26 541.52 211.17 540.40 201.57 C 535.92 192.16 523.34 197.81 516.05 192.99 C 505.87 188.73 510.02 173.34 518.00 168.80 Z" />
</g>
<g id="#b12213ff">
<path fill="#b12213" opacity="1.00" d=" M 9.67 169.70 C 16.71 165.80 15.46 178.36 14.89 181.94 C 10.13 209.81 11.70 239.58 0.00 265.68 L 0.00 250.72 C 5.30 228.11 8.47 204.36 10.99 181.11 C 6.79 174.48 3.19 187.30 0.00 190.43 L 0.00 186.61 C 4.16 181.53 5.75 174.90 9.67 169.70 Z" />
</g>
<g id="#fbc088ff">
<path fill="#fbc088" opacity="1.00" d=" M 455.36 169.26 C 467.60 167.56 461.18 185.50 461.97 191.99 C 461.04 199.55 467.38 221.83 452.33 214.68 C 449.12 203.07 451.85 190.08 451.03 178.00 C 450.19 174.58 451.73 170.20 455.36 169.26 Z" />
</g>
<g id="#fcc379ff">
<path fill="#fcc379" opacity="1.00" d=" M 554.58 172.65 C 555.84 168.18 563.01 168.65 563.89 173.12 C 564.88 186.45 563.01 199.78 563.10 213.13 C 553.33 218.10 554.27 206.14 553.75 200.22 C 554.13 191.04 553.48 181.76 554.58 172.65 Z" />
</g>
<g id="#877652ff">
<path fill="#877652" opacity="1.00" d=" M 296.72 170.67 C 305.68 173.18 314.02 172.01 322.80 169.93 C 324.19 169.93 325.59 169.93 326.98 169.92 C 324.92 170.58 322.85 171.22 320.79 171.85 C 317.85 172.07 314.74 171.67 312.16 173.28 C 312.15 184.78 311.41 196.25 310.57 207.71 C 310.28 210.56 309.95 213.39 309.73 216.26 C 309.35 215.05 308.97 213.85 308.59 212.64 C 308.70 210.01 308.80 207.37 308.89 204.74 C 308.66 196.15 311.57 187.15 310.39 178.82 C 306.31 178.38 300.97 180.57 296.52 180.59 C 294.58 192.48 295.43 204.56 294.57 216.53 C 291.67 216.87 288.81 217.04 285.92 217.20 C 280.80 205.98 286.26 192.42 283.48 180.51 C 277.66 179.35 265.89 176.33 269.64 186.01 C 265.66 195.71 277.63 220.87 259.36 217.69 C 247.69 213.74 245.80 198.55 237.21 190.65 C 235.32 199.58 241.86 225.64 224.85 216.07 C 225.15 202.10 224.83 188.14 225.12 174.18 C 227.90 171.75 231.61 171.65 235.17 171.82 C 236.63 172.26 238.10 172.71 239.56 173.16 C 246.84 180.44 251.48 189.85 257.02 198.42 C 260.48 190.60 255.62 180.24 259.23 172.11 C 271.76 173.90 284.15 170.36 296.72 170.67 M 273.28 173.11 C 267.47 180.98 281.21 178.42 284.83 180.19 C 289.71 190.97 281.18 205.13 287.22 215.96 C 301.32 215.32 290.81 194.42 293.99 186.00 C 290.13 173.57 310.23 182.81 308.00 173.06 C 296.43 172.94 284.85 172.86 273.28 173.11 M 228.23 174.02 C 223.36 186.65 227.49 202.19 226.68 215.33 C 244.30 221.09 228.96 192.81 237.01 186.96 C 244.61 195.57 249.55 206.91 257.16 215.86 C 261.26 216.22 267.35 217.44 267.90 211.90 C 267.33 199.52 269.69 185.72 266.76 174.12 C 252.10 171.53 264.45 195.23 256.99 201.14 C 247.63 192.10 244.75 170.82 228.23 174.02 Z" />
</g>
<g id="#fcbf8bff">
<path fill="#fcbf8b" opacity="1.00" d=" M 418.89 200.01 C 426.34 190.55 423.12 162.71 443.49 170.43 C 444.90 185.30 443.96 200.56 443.54 215.50 C 440.75 216.61 437.67 215.39 434.78 215.29 C 432.67 207.54 436.73 197.77 431.93 191.51 C 428.19 199.12 426.05 207.57 421.74 214.89 C 405.86 219.39 411.31 194.43 402.10 189.94 C 401.12 198.15 403.57 207.00 400.75 214.86 C 397.12 215.36 390.91 216.30 391.90 211.00 C 394.37 197.99 390.15 182.60 394.11 171.03 C 414.31 164.51 408.21 192.59 418.89 200.01 Z" />
</g>
<g id="#b96721ff">
<path fill="#b96721" opacity="1.00" d=" M 547.17 169.71 C 549.08 170.36 550.99 171.07 552.86 171.87 C 553.05 181.32 552.65 190.80 553.75 200.22 C 554.27 206.14 553.33 218.10 563.10 213.13 L 563.95 213.52 L 564.66 213.86 C 560.64 215.05 555.02 216.55 552.73 211.88 C 551.97 210.48 554.99 197.09 551.16 202.09 C 550.51 213.06 538.61 217.53 529.06 218.17 C 528.29 218.12 526.76 218.00 525.99 217.94 L 526.18 217.07 C 529.88 216.91 533.49 216.09 537.06 215.06 C 547.39 213.03 552.57 201.04 547.03 191.95 C 540.12 185.68 529.82 187.31 521.63 184.29 C 517.73 177.30 529.40 173.55 534.00 177.00 C 537.90 181.37 550.44 190.76 549.01 178.20 C 548.97 175.27 548.14 172.45 547.17 169.71 Z" />
</g>
<g id="#fcbd8eff">
<path fill="#fcbd8e" opacity="1.00" d=" M 350.15 172.14 C 358.80 168.60 369.57 172.02 378.83 171.19 C 388.66 172.76 389.67 184.12 385.17 191.18 C 386.55 199.42 394.56 220.06 378.75 215.33 C 377.44 209.72 378.99 203.58 376.74 198.26 C 368.12 194.70 352.83 194.99 357.89 208.96 C 361.84 216.26 348.47 217.92 348.22 211.88 C 350.24 198.74 347.26 184.74 350.15 172.14 M 360.28 179.08 C 352.84 190.35 371.44 189.78 376.99 185.98 C 380.73 177.08 364.34 179.14 360.28 179.08 Z" />
</g>
<g id="#faca98ff">
<path fill="#faca98" opacity="1.00" d=" M 312.16 173.28 C 314.74 171.67 317.85 172.07 320.79 171.85 C 328.30 172.47 338.12 170.70 344.01 173.03 C 345.78 186.53 313.39 171.26 322.65 187.32 C 329.00 191.81 344.27 183.02 341.59 195.51 C 335.50 197.60 325.10 193.59 321.02 199.13 C 317.13 214.44 337.25 204.55 343.76 209.29 C 348.82 216.48 336.18 216.91 332.02 216.08 C 324.73 214.11 307.11 221.83 310.57 207.71 C 311.41 196.25 312.15 184.78 312.16 173.28 Z" />
</g>
<g id="#7f967aff">
<path fill="#7f967a" opacity="1.00" d=" M 210.66 173.10 C 211.57 173.05 213.39 172.96 214.30 172.91 C 214.94 172.96 216.22 173.06 216.86 173.11 C 217.63 174.12 218.41 175.14 219.17 176.18 C 215.42 189.20 225.45 208.06 215.36 218.48 C 213.76 218.12 210.55 217.40 208.95 217.04 L 208.94 216.18 C 211.44 216.41 213.93 216.62 216.45 216.58 C 218.33 202.91 218.68 189.00 216.75 175.32 C 215.03 174.33 213.04 174.05 211.14 173.61 L 210.66 173.10 Z" />
</g>
<g id="#e8d19fff">
<path fill="#e8d19f" opacity="1.00" d=" M 273.28 173.11 C 284.85 172.86 296.43 172.94 308.00 173.06 C 310.23 182.81 290.13 173.57 293.99 186.00 C 290.81 194.42 301.32 215.32 287.22 215.96 C 281.18 205.13 289.71 190.97 284.83 180.19 C 281.21 178.42 267.47 180.98 273.28 173.11 Z" />
</g>
<g id="#f24d16ff">
<path fill="#f24d16" opacity="1.00" d=" M 74.68 174.70 C 79.87 171.79 75.72 183.00 76.54 185.51 C 72.24 208.79 66.45 231.85 63.26 255.35 C 62.01 252.00 62.63 248.46 62.64 245.00 C 64.88 230.37 48.90 220.04 54.61 204.77 C 55.36 205.99 56.14 207.19 57.00 208.34 C 64.88 198.25 66.16 184.41 74.68 174.70 Z" />
</g>
<g id="#bae3c9ff">
<path fill="#bae3c9" opacity="1.00" d=" M 208.94 216.18 C 210.62 202.36 205.83 186.16 211.14 173.61 C 213.04 174.05 215.03 174.33 216.75 175.32 C 218.68 189.00 218.33 202.91 216.45 216.58 C 213.93 216.62 211.44 216.41 208.94 216.18 Z" />
</g>
<g id="#3b401eff">
<path fill="#3b401e" opacity="1.00" d=" M 219.17 176.18 C 221.33 176.11 223.46 175.64 225.12 174.18 C 224.83 188.14 225.15 202.10 224.85 216.07 C 222.78 212.27 227.07 202.42 220.18 202.91 C 219.85 207.88 220.47 213.02 219.05 217.88 C 218.46 218.20 217.27 218.84 216.68 219.16 C 216.19 219.12 215.22 219.03 214.73 218.99 L 215.36 218.48 C 225.45 208.06 215.42 189.20 219.17 176.18 Z" />
</g>
<g id="#e4d5a6ff">
<path fill="#e4d5a6" opacity="1.00" d=" M 228.23 174.02 C 244.75 170.82 247.63 192.10 256.99 201.14 C 264.45 195.23 252.10 171.53 266.76 174.12 C 269.69 185.72 267.33 199.52 267.90 211.90 C 267.35 217.44 261.26 216.22 257.16 215.86 C 249.55 206.91 244.61 195.57 237.01 186.96 C 228.96 192.81 244.30 221.09 226.68 215.33 C 227.49 202.19 223.36 186.65 228.23 174.02 Z" />
</g>
<g id="#ee7b14ff">
<path fill="#ee7b14" opacity="1.00" d=" M 588.41 177.34 C 597.37 174.64 608.74 180.67 607.04 191.02 C 609.10 200.91 599.10 208.27 590.34 207.67 C 575.82 204.99 575.25 181.88 588.41 177.34 Z" />
</g>
<g id="#341610ff">
<path fill="#341610" opacity="1.00" d=" M 296.52 180.59 C 300.97 180.57 306.31 178.38 310.39 178.82 C 311.57 187.15 308.66 196.15 308.89 204.74 C 303.22 208.37 304.42 215.82 303.49 221.55 C 299.52 247.90 306.93 275.22 322.01 297.03 C 332.90 313.25 347.78 329.64 367.98 333.07 C 383.76 337.81 400.48 334.77 416.15 331.13 C 412.98 334.42 409.69 337.62 405.82 340.08 C 385.07 342.16 362.06 341.70 344.92 328.18 C 312.43 304.11 295.05 262.25 299.93 222.13 C 299.08 215.03 290.28 219.82 285.92 217.20 C 288.81 217.04 291.67 216.87 294.57 216.53 C 295.43 204.56 294.58 192.48 296.52 180.59 Z" />
</g>
<g id="#d74830ff">
<path fill="#d74830" opacity="1.00" d=" M 0.00 190.43 C 3.19 187.30 6.79 174.48 10.99 181.11 C 8.47 204.36 5.30 228.11 0.00 250.72 L 0.00 190.43 Z" />
</g>
<g id="#13100dff">
<path fill="#13100d" opacity="1.00" d=" M 269.64 186.01 C 265.89 176.33 277.66 179.35 283.48 180.51 C 286.26 192.42 280.80 205.98 285.92 217.20 C 290.28 219.82 299.08 215.03 299.93 222.13 C 295.05 262.25 312.43 304.11 344.92 328.18 C 362.06 341.70 385.07 342.16 405.82 340.08 C 414.49 351.25 416.32 365.34 421.93 378.00 L 293.30 378.00 C 281.70 364.52 274.87 348.15 264.44 333.54 C 260.84 324.79 247.29 329.10 247.09 317.98 C 247.79 302.37 232.95 291.59 233.92 275.98 C 232.30 258.85 225.73 242.34 228.87 225.23 C 225.82 222.49 222.32 220.32 219.05 217.88 C 220.47 213.02 219.85 207.88 220.18 202.91 C 227.07 202.42 222.78 212.27 224.85 216.07 C 241.86 225.64 235.32 199.58 237.21 190.65 C 245.80 198.55 247.69 213.74 259.36 217.69 C 277.63 220.87 265.66 195.71 269.64 186.01 Z" />
</g>
<g id="#b34025ff">
<path fill="#b34025" opacity="1.00" d=" M 346.84 179.34 C 347.18 189.22 347.00 199.12 347.09 209.02 C 340.60 202.19 329.08 208.89 322.17 204.73 C 318.63 189.69 342.03 205.20 344.13 194.02 C 345.75 181.63 329.11 188.73 322.65 187.32 C 319.73 174.18 340.28 184.05 346.84 179.34 Z" />
</g>
<g id="#b15325ff">
<path fill="#b15325" opacity="1.00" d=" M 360.28 179.08 C 364.34 179.14 380.73 177.08 376.99 185.98 C 371.44 189.78 352.84 190.35 360.28 179.08 Z" />
</g>
<g id="#01748eff">
<path fill="#01748e" opacity="1.00" d=" M 201.66 189.66 C 202.23 187.04 203.37 183.09 206.85 183.95 C 208.93 194.47 207.86 205.28 207.70 215.92 C 202.75 214.69 203.23 220.71 203.25 223.95 C 206.38 277.53 218.37 331.82 246.49 378.00 L 236.45 378.00 C 232.23 370.14 227.92 362.28 225.19 353.75 C 218.75 339.15 208.62 326.12 207.35 309.51 C 198.24 270.18 195.26 229.67 201.66 189.66 Z" />
</g>
<g id="#aa470fff">
<path fill="#aa470f" opacity="1.00" d=" M 506.63 185.59 C 510.92 182.96 508.21 191.92 512.29 192.79 C 519.44 200.44 533.22 193.96 539.04 202.13 C 538.25 211.00 526.51 207.97 520.84 205.20 C 520.81 197.92 513.07 198.43 507.72 198.21 C 507.37 194.15 500.90 187.81 506.63 185.59 Z" />
</g>
<g id="#d21d39ff">
<path fill="#d21d39" opacity="1.00" d=" M 403.11 197.77 C 407.61 199.66 406.87 206.54 409.54 210.39 C 409.98 217.76 422.51 220.05 425.15 213.23 C 427.66 211.69 434.55 200.36 431.59 210.74 C 434.33 229.02 439.02 247.70 439.26 266.33 C 436.75 277.08 422.49 289.74 431.00 300.78 C 406.38 320.18 366.51 327.65 341.73 304.25 C 321.35 281.52 306.41 248.57 317.02 218.13 C 330.06 219.99 343.04 214.68 355.75 217.73 C 363.66 215.23 358.55 204.90 360.16 199.03 C 364.61 200.57 376.43 195.09 376.10 202.88 C 368.22 204.32 370.79 215.53 363.59 218.59 C 350.00 221.60 334.92 218.83 321.31 223.25 C 313.87 228.84 319.32 240.45 319.46 248.17 C 318.88 266.90 330.45 282.81 340.88 297.09 C 358.22 297.02 376.14 304.44 393.57 299.55 C 404.58 293.82 401.71 279.43 398.02 269.92 C 396.92 254.84 398.20 238.58 390.00 225.06 C 386.98 223.29 380.03 220.94 385.03 217.13 C 390.14 215.13 395.39 217.87 400.62 216.84 C 406.33 212.61 401.33 203.61 403.11 197.77 Z" />
</g>
<g id="#b63a04ff">
<path fill="#b63a04" opacity="1.00" d=" M 665.17 198.10 L 666.13 197.59 C 664.99 221.01 671.89 245.12 662.88 267.88 C 648.39 306.76 633.63 346.60 605.41 378.00 L 596.62 378.00 C 616.96 359.83 634.25 338.24 643.32 312.23 C 651.28 293.21 658.33 273.74 662.41 253.49 C 664.90 240.76 660.91 227.65 662.99 215.05 C 666.31 210.02 664.75 203.74 665.17 198.10 Z" />
</g>
<g id="#701000ff">
<path fill="#701000" opacity="1.00" d=" M 666.13 197.59 C 678.21 230.92 676.09 270.68 654.98 300.03 C 642.28 326.69 631.65 355.04 612.54 378.00 L 605.41 378.00 C 633.63 346.60 648.39 306.76 662.88 267.88 C 671.89 245.12 664.99 221.01 666.13 197.59 Z" />
</g>
<g id="#6d1604ff">
<path fill="#6d1604" opacity="1.00" d=" M 563.95 213.52 C 566.20 208.96 563.55 201.98 566.03 198.87 C 569.07 204.31 571.30 210.45 576.89 213.96 C 581.90 217.36 578.12 223.14 580.07 227.86 C 584.77 245.52 580.14 264.65 569.05 278.99 C 566.12 280.60 561.40 286.53 559.37 281.58 C 560.14 276.73 559.52 265.10 551.67 268.64 C 544.76 273.28 532.34 279.82 527.04 269.93 C 525.64 252.80 523.03 234.82 529.06 218.17 C 538.61 217.53 550.51 213.06 551.16 202.09 C 554.99 197.09 551.97 210.48 552.73 211.88 C 528.04 215.77 530.34 249.41 535.28 266.74 C 544.99 274.28 556.17 252.87 563.79 265.16 C 567.34 274.45 574.92 263.53 575.59 258.79 C 577.49 243.70 579.73 222.54 564.66 213.86 L 563.95 213.52 Z" />
</g>
<g id="#d5444eff">
<path fill="#d5444e" opacity="1.00" d=" M 430.43 200.24 C 436.90 199.72 429.73 212.11 434.78 215.29 C 450.66 219.83 468.39 216.46 485.04 218.97 C 481.36 223.08 485.79 228.23 484.83 232.83 C 480.04 246.06 479.87 260.85 481.94 274.60 C 480.54 276.03 479.17 277.48 477.87 279.01 C 462.57 263.77 434.75 282.77 442.97 302.99 C 442.28 303.02 440.90 303.07 440.21 303.10 C 437.14 302.32 434.08 301.49 431.00 300.78 C 422.49 289.74 436.75 277.08 439.26 266.33 C 439.02 247.70 434.33 229.02 431.59 210.74 C 434.55 200.36 427.66 211.69 425.15 213.23 C 426.50 208.73 429.22 204.80 430.43 200.24 Z" />
</g>
<g id="#ff7701ff">
<path fill="#ff7701" opacity="1.00" d=" M 636.40 206.38 C 641.63 194.83 648.73 213.43 655.15 215.21 C 645.20 218.31 649.51 230.89 650.45 238.51 C 654.47 258.66 637.61 272.08 629.06 288.01 C 619.11 313.34 599.99 335.82 575.12 347.15 C 571.32 350.98 564.48 344.01 568.90 340.97 C 583.79 327.96 590.86 308.65 596.10 290.12 C 600.51 272.29 609.64 255.78 608.79 236.93 C 608.43 230.43 610.07 218.17 600.82 217.70 C 607.33 216.70 613.34 209.68 619.95 213.13 C 626.46 219.02 634.87 213.88 636.40 206.38 Z" />
</g>
<g id="#ea204cff">
<path fill="#ea204c" opacity="1.00" d=" M 363.59 218.59 C 370.79 215.53 368.22 204.32 376.10 202.88 C 377.21 206.94 375.91 211.93 378.75 215.33 C 380.61 216.56 382.82 217.05 385.03 217.13 C 380.03 220.94 386.98 223.29 390.00 225.06 C 398.20 238.58 396.92 254.84 398.02 269.92 C 401.71 279.43 404.58 293.82 393.57 299.55 C 376.14 304.44 358.22 297.02 340.88 297.09 C 330.45 282.81 318.88 266.90 319.46 248.17 C 319.32 240.45 313.87 228.84 321.31 223.25 C 334.92 218.83 350.00 221.60 363.59 218.59 Z" />
</g>
<g id="#571827ff">
<path fill="#571827" opacity="1.00" d=" M 303.49 221.55 C 304.42 215.82 303.22 208.37 308.89 204.74 C 308.80 207.37 308.70 210.01 308.59 212.64 C 301.49 232.60 306.29 254.56 313.16 273.88 C 324.61 299.02 343.23 326.40 372.91 330.14 C 397.91 335.80 420.01 321.88 440.21 309.66 C 441.77 309.96 444.89 310.56 446.46 310.86 C 444.60 312.16 442.75 313.48 440.80 314.63 C 432.42 319.87 424.67 326.08 416.15 331.13 C 400.48 334.77 383.76 337.81 367.98 333.07 C 347.78 329.64 332.90 313.25 322.01 297.03 C 306.93 275.22 299.52 247.90 303.49 221.55 Z" />
</g>
<g id="#d64026ff">
<path fill="#d64026" opacity="1.00" d=" M 503.87 211.91 C 508.72 199.33 516.75 220.19 526.18 217.07 L 525.99 217.94 C 525.27 217.88 523.83 217.77 523.12 217.71 C 517.01 218.07 512.79 211.41 507.41 211.31 C 494.81 223.94 491.84 242.97 489.07 259.86 C 489.83 268.81 501.26 260.04 503.42 267.66 C 505.04 273.44 503.44 279.42 501.96 285.06 C 501.28 286.70 500.62 288.36 499.92 290.00 C 499.69 290.27 499.25 290.81 499.02 291.08 C 496.23 283.10 489.36 277.95 481.94 274.60 C 479.87 260.85 480.04 246.06 484.83 232.83 C 485.79 228.23 481.36 223.08 485.04 218.97 C 488.73 218.44 492.37 217.76 496.02 216.98 C 498.75 215.55 501.84 214.30 503.87 211.91 Z" />
</g>
<g id="#d31e0bff">
<path fill="#d31e0b" opacity="1.00" d=" M 507.41 211.31 C 512.79 211.41 517.01 218.07 523.12 217.71 C 516.38 225.50 520.17 239.94 519.78 250.06 C 522.88 264.97 508.72 273.99 501.96 285.06 C 503.44 279.42 505.04 273.44 503.42 267.66 C 501.26 260.04 489.83 268.81 489.07 259.86 C 491.84 242.97 494.81 223.94 507.41 211.31 Z" />
</g>
<g id="#280e06ff">
<path fill="#280e06" opacity="1.00" d=" M 535.28 266.74 C 530.34 249.41 528.04 215.77 552.73 211.88 C 555.02 216.55 560.64 215.05 564.66 213.86 C 579.73 222.54 577.49 243.70 575.59 258.79 C 574.92 263.53 567.34 274.45 563.79 265.16 C 556.17 252.87 544.99 274.28 535.28 266.74 Z" />
</g>
<g id="#841a30ff">
<path fill="#841a30" opacity="1.00" d=" M 313.16 273.88 C 306.29 254.56 301.49 232.60 308.59 212.64 C 308.97 213.85 309.35 215.05 309.73 216.26 C 304.04 258.08 323.30 308.57 365.34 323.68 C 391.24 331.32 416.88 319.54 437.89 305.51 C 438.68 306.88 439.45 308.26 440.21 309.66 C 420.01 321.88 397.91 335.80 372.91 330.14 C 343.23 326.40 324.61 299.02 313.16 273.88 Z" />
</g>
<g id="#c1300cff">
<path fill="#c1300c" opacity="1.00" d=" M 576.89 213.96 C 579.90 215.41 582.94 216.78 586.03 218.06 C 587.65 236.52 589.25 257.19 577.11 273.11 C 568.38 284.89 559.69 301.39 544.01 304.04 C 542.09 295.42 549.24 288.61 548.91 280.21 C 539.75 277.86 531.96 288.78 526.94 294.94 C 522.33 303.61 511.37 302.95 504.64 308.99 C 506.33 301.78 493.04 297.26 499.02 291.08 C 499.25 290.81 499.69 290.27 499.92 290.00 C 505.12 282.73 504.31 296.68 511.95 292.00 C 517.56 292.06 520.27 287.11 523.40 283.43 C 534.41 285.14 541.67 273.94 551.72 273.18 C 558.06 280.51 546.00 289.66 550.25 296.89 C 559.28 296.02 564.72 286.00 569.05 278.99 C 580.14 264.65 584.77 245.52 580.07 227.86 C 578.12 223.14 581.90 217.36 576.89 213.96 Z" />
</g>
<g id="#fb6205ff">
<path fill="#fb6205" opacity="1.00" d=" M 655.15 215.21 C 657.74 215.15 660.36 215.09 662.99 215.05 C 660.91 227.65 664.90 240.76 662.41 253.49 C 658.33 273.74 651.28 293.21 643.32 312.23 C 643.17 310.41 644.48 307.43 642.02 306.75 C 632.28 318.58 625.62 333.80 612.81 342.89 C 617.74 334.88 627.90 322.69 623.00 313.73 C 610.27 331.10 592.45 344.97 584.42 365.38 C 570.08 360.53 552.76 366.44 539.07 357.78 C 537.63 349.00 550.72 346.21 549.89 338.26 C 542.19 330.13 528.60 333.42 519.94 329.06 C 522.56 317.88 511.01 317.06 503.28 316.03 C 503.49 314.99 503.71 313.94 503.92 312.90 C 512.57 310.09 522.16 311.06 530.27 306.25 C 529.72 311.51 525.00 317.18 527.67 322.28 C 539.45 328.15 548.39 315.89 554.36 307.37 C 565.67 297.20 569.73 277.93 586.97 275.94 C 598.97 259.72 600.88 235.96 591.96 218.00 C 594.92 217.93 597.81 217.79 600.82 217.70 C 610.07 218.17 608.43 230.43 608.79 236.93 C 609.64 255.78 600.51 272.29 596.10 290.12 C 590.86 308.65 583.79 327.96 568.90 340.97 C 564.48 344.01 571.32 350.98 575.12 347.15 C 599.99 335.82 619.11 313.34 629.06 288.01 C 637.61 272.08 654.47 258.66 650.45 238.51 C 649.51 230.89 645.20 218.31 655.15 215.21 Z" />
</g>
<g id="#005977ff">
<path fill="#005977" opacity="1.00" d=" M 203.25 223.95 C 203.23 220.71 202.75 214.69 207.70 215.92 C 208.01 216.20 208.64 216.76 208.95 217.04 C 210.55 217.40 213.76 218.12 215.36 218.48 L 214.73 218.99 C 214.04 219.00 212.65 219.01 211.96 219.02 C 210.73 219.20 208.70 218.70 208.20 220.24 C 212.60 275.10 220.07 334.86 257.39 378.00 L 246.49 378.00 C 218.37 331.82 206.38 277.53 203.25 223.95 Z" />
</g>
<g id="#ae1c39ff">
<path fill="#ae1c39" opacity="1.00" d=" M 309.73 216.26 C 311.95 217.55 314.45 218.16 317.02 218.13 C 306.41 248.57 321.35 281.52 341.73 304.25 C 366.51 327.65 406.38 320.18 431.00 300.78 C 434.08 301.49 437.14 302.32 440.21 303.10 C 439.43 303.90 438.67 304.71 437.89 305.51 C 416.88 319.54 391.24 331.32 365.34 323.68 C 323.30 308.57 304.04 258.08 309.73 216.26 Z" />
</g>
<g id="#0a1422ff">
<path fill="#0a1422" opacity="1.00" d=" M 216.68 219.16 C 217.27 218.84 218.46 218.20 219.05 217.88 C 222.32 220.32 225.82 222.49 228.87 225.23 C 225.73 242.34 232.30 258.85 233.92 275.98 C 232.95 291.59 247.79 302.37 247.09 317.98 C 247.29 329.10 260.84 324.79 264.44 333.54 C 274.87 348.15 281.70 364.52 293.30 378.00 L 276.33 378.00 C 262.15 362.42 252.24 343.83 240.53 326.52 C 233.11 305.49 223.47 285.14 221.58 262.54 C 217.80 248.23 225.50 231.78 216.68 219.16 Z" />
</g>
<g id="#ab1302ff">
<path fill="#ab1302" opacity="1.00" d=" M 519.78 250.06 C 520.17 239.94 516.38 225.50 523.12 217.71 C 523.83 217.77 525.27 217.88 525.99 217.94 C 526.76 218.00 528.29 218.12 529.06 218.17 C 523.03 234.82 525.64 252.80 527.04 269.93 C 532.34 279.82 544.76 273.28 551.67 268.64 C 559.52 265.10 560.14 276.73 559.37 281.58 C 561.40 286.53 566.12 280.60 569.05 278.99 C 564.72 286.00 559.28 296.02 550.25 296.89 C 546.00 289.66 558.06 280.51 551.72 273.18 C 541.67 273.94 534.41 285.14 523.40 283.43 C 520.27 287.11 517.56 292.06 511.95 292.00 C 504.31 296.68 505.12 282.73 499.92 290.00 C 500.62 288.36 501.28 286.70 501.96 285.06 C 508.72 273.99 522.88 264.97 519.78 250.06 Z" />
</g>
<g id="#ee410aff">
<path fill="#ee410a" opacity="1.00" d=" M 586.03 218.06 C 588.00 218.04 589.98 218.00 591.96 218.00 C 600.88 235.96 598.97 259.72 586.97 275.94 C 569.73 277.93 565.67 297.20 554.36 307.37 C 548.39 315.89 539.45 328.15 527.67 322.28 C 525.00 317.18 529.72 311.51 530.27 306.25 C 522.16 311.06 512.57 310.09 503.92 312.90 C 504.15 311.59 504.39 310.29 504.64 308.99 C 511.37 302.95 522.33 303.61 526.94 294.94 C 531.96 288.78 539.75 277.86 548.91 280.21 C 549.24 288.61 542.09 295.42 544.01 304.04 C 559.69 301.39 568.38 284.89 577.11 273.11 C 589.25 257.19 587.65 236.52 586.03 218.06 Z" />
</g>
<g id="#003d5bff">
<path fill="#003d5b" opacity="1.00" d=" M 208.20 220.24 C 208.70 218.70 210.73 219.20 211.96 219.02 C 217.54 246.39 214.89 275.39 224.96 302.06 C 231.42 330.71 248.20 354.98 265.48 378.00 L 257.39 378.00 C 220.07 334.86 212.60 275.10 208.20 220.24 Z" />
</g>
<g id="#02243dff">
<path fill="#02243d" opacity="1.00" d=" M 211.96 219.02 C 212.65 219.01 214.04 219.00 214.73 218.99 C 215.22 219.03 216.19 219.12 216.68 219.16 C 225.50 231.78 217.80 248.23 221.58 262.54 C 223.47 285.14 233.11 305.49 240.53 326.52 C 252.24 343.83 262.15 362.42 276.33 378.00 L 265.48 378.00 C 248.20 354.98 231.42 330.71 224.96 302.06 C 214.89 275.39 217.54 246.39 211.96 219.02 Z" />
</g>
<g id="#e45b2aff">
<path fill="#e45b2a" opacity="1.00" d=" M 69.33 378.00 C 53.56 345.40 53.54 306.41 61.71 271.63 C 60.28 289.53 58.89 307.55 60.58 325.49 C 63.81 343.52 73.00 359.71 75.19 378.00 L 69.33 378.00 Z" />
</g>
<g id="#cc6f66ff">
<path fill="#cc6f66" opacity="1.00" d=" M 442.97 302.99 C 434.75 282.77 462.57 263.77 477.87 279.01 C 481.29 289.01 476.92 298.31 467.78 302.96 C 459.56 304.11 451.22 302.73 442.97 302.99 Z" />
</g>
<g id="#b15e38ff">
<path fill="#b15e38" opacity="1.00" d=" M 477.87 279.01 C 479.17 277.48 480.54 276.03 481.94 274.60 C 489.36 277.95 496.23 283.10 499.02 291.08 C 493.04 297.26 506.33 301.78 504.64 308.99 C 504.39 310.29 504.15 311.59 503.92 312.90 C 503.71 313.94 503.49 314.99 503.28 316.03 C 499.46 320.31 493.89 321.81 488.86 324.09 C 485.89 324.73 482.94 325.36 479.95 325.88 L 478.90 325.76 C 481.76 316.84 491.39 310.28 489.90 300.24 C 483.09 297.38 475.15 302.22 467.78 302.96 C 476.92 298.31 481.29 289.01 477.87 279.01 Z" />
</g>
<g id="#02323aff">
<path fill="#02323a" opacity="1.00" d=" M 683.71 305.67 C 685.39 303.87 686.70 295.68 689.89 299.22 C 690.68 328.91 672.83 354.58 656.69 378.00 L 644.81 378.00 C 658.77 354.44 674.34 331.60 683.71 305.67 Z" />
</g>
<g id="#775252ff">
<path fill="#775252" opacity="1.00" d=" M 467.78 302.96 C 475.15 302.22 483.09 297.38 489.90 300.24 C 491.39 310.28 481.76 316.84 478.90 325.76 C 476.17 326.93 473.77 328.73 471.97 331.09 C 470.67 331.07 469.39 331.06 468.11 331.04 C 468.38 329.30 468.62 327.57 468.90 325.83 C 469.69 322.41 473.54 318.40 470.91 315.12 C 463.02 312.64 454.69 311.58 446.46 310.86 C 444.89 310.56 441.77 309.96 440.21 309.66 C 439.45 308.26 438.68 306.88 437.89 305.51 C 438.67 304.71 439.43 303.90 440.21 303.10 C 440.90 303.07 442.28 303.02 442.97 302.99 C 451.22 302.73 459.56 304.11 467.78 302.96 Z" />
</g>
<g id="#90110cff">
<path fill="#90110c" opacity="1.00" d=" M 0.00 301.99 C 12.89 293.97 16.33 311.27 17.59 320.33 C 19.36 339.67 25.43 358.50 25.08 378.00 L 21.05 378.00 C 22.24 360.24 16.34 343.22 13.22 325.96 C 11.63 321.61 12.54 315.30 7.88 312.63 C 5.25 316.11 3.74 320.32 0.95 323.70 L 0.00 324.16 L 0.00 301.99 Z" />
</g>
<g id="#033245ff">
<path fill="#033245" opacity="1.00" d=" M 712.21 309.23 C 713.45 307.18 718.69 298.08 719.02 304.00 C 715.54 329.82 705.23 354.35 694.49 378.00 L 681.70 378.00 C 692.74 355.47 701.86 332.01 712.21 309.23 Z" />
</g>
<g id="#f2842bff">
<path fill="#f2842b" opacity="1.00" d=" M 612.81 342.89 C 625.62 333.80 632.28 318.58 642.02 306.75 C 644.48 307.43 643.17 310.41 643.32 312.23 C 634.25 338.24 616.96 359.83 596.62 378.00 L 594.64 378.00 C 601.92 366.74 615.17 359.14 619.05 345.93 C 614.49 345.29 611.80 349.91 607.70 351.01 C 608.52 347.82 610.58 345.22 612.81 342.89 Z" />
</g>
<g id="#1c384fff">
<path fill="#1c384f" opacity="1.00" d=" M 446.46 310.86 C 454.69 311.58 463.02 312.64 470.91 315.12 C 473.54 318.40 469.69 322.41 468.90 325.83 C 461.24 335.11 450.10 346.78 460.27 358.66 C 469.49 368.24 483.26 369.52 495.27 372.74 C 497.48 373.76 496.94 376.17 496.24 378.00 L 480.78 378.00 C 469.51 368.60 447.82 368.28 445.31 350.68 C 442.89 340.34 454.06 335.08 459.02 327.82 C 461.93 317.35 447.79 316.31 440.80 314.63 C 442.75 313.48 444.60 312.16 446.46 310.86 Z" />
</g>
<g id="#d61914ff">
<path fill="#d61914" opacity="1.00" d=" M 0.95 323.70 C 3.74 320.32 5.25 316.11 7.88 312.63 C 12.54 315.30 11.63 321.61 13.22 325.96 C 16.34 343.22 22.24 360.24 21.05 378.00 L 15.23 378.00 C 10.48 360.26 12.68 338.02 0.95 323.70 Z" />
</g>
<g id="#c53003ff">
<path fill="#c53003" opacity="1.00" d=" M 584.42 365.38 C 592.45 344.97 610.27 331.10 623.00 313.73 C 627.90 322.69 617.74 334.88 612.81 342.89 C 610.58 345.22 608.52 347.82 607.70 351.01 C 605.17 353.69 602.79 356.51 600.15 359.08 C 594.63 361.05 589.23 363.31 584.17 366.29 L 584.42 365.38 Z" />
</g>
<g id="#111c2fff">
<path fill="#111c2f" opacity="1.00" d=" M 416.15 331.13 C 424.67 326.08 432.42 319.87 440.80 314.63 C 447.79 316.31 461.93 317.35 459.02 327.82 C 454.06 335.08 442.89 340.34 445.31 350.68 C 447.82 368.28 469.51 368.60 480.78 378.00 L 421.93 378.00 C 416.32 365.34 414.49 351.25 405.82 340.08 C 409.69 337.62 412.98 334.42 416.15 331.13 Z" />
</g>
<g id="#f39140ff">
<path fill="#f39140" opacity="1.00" d=" M 503.28 316.03 C 511.01 317.06 522.56 317.88 519.94 329.06 C 528.60 333.42 542.19 330.13 549.89 338.26 C 550.72 346.21 537.63 349.00 539.07 357.78 C 552.76 366.44 570.08 360.53 584.42 365.38 L 584.17 366.29 C 580.56 370.55 575.92 373.77 572.29 378.00 L 523.11 378.00 C 522.06 372.10 521.34 366.15 520.01 360.31 C 525.04 356.47 536.26 349.15 529.73 342.24 C 513.99 341.56 506.15 325.87 489.84 327.76 C 489.50 326.53 489.17 325.31 488.86 324.09 C 493.89 321.81 499.46 320.31 503.28 316.03 Z" />
</g>
<g id="#e94433ff">
<path fill="#e94433" opacity="1.00" d=" M 0.00 324.16 L 0.95 323.70 C 12.68 338.02 10.48 360.26 15.23 378.00 L 0.00 378.00 L 0.00 324.16 Z" />
</g>
<g id="#c6a06eff">
<path fill="#c6a06e" opacity="1.00" d=" M 479.95 325.88 C 482.94 325.36 485.89 324.73 488.86 324.09 C 489.17 325.31 489.50 326.53 489.84 327.76 C 483.95 332.51 485.19 341.52 491.70 345.32 C 501.71 349.39 508.92 358.67 520.01 360.31 C 521.34 366.15 522.06 372.10 523.11 378.00 L 511.86 378.00 C 514.25 372.47 515.70 364.96 508.12 362.88 C 494.85 354.82 468.33 345.65 479.95 325.88 Z" />
</g>
<g id="#428380ff">
<path fill="#428380" opacity="1.00" d=" M 655.12 335.10 C 657.22 330.84 659.38 326.34 664.14 324.62 C 666.11 326.61 667.19 329.22 665.06 332.03 C 659.66 348.50 649.62 362.80 641.57 378.00 L 628.63 378.00 C 638.81 364.55 647.43 350.09 655.12 335.10 Z" />
</g>
<g id="#246071ff">
<path fill="#246071" opacity="1.00" d=" M 460.27 358.66 C 450.10 346.78 461.24 335.11 468.90 325.83 C 468.62 327.57 468.38 329.30 468.11 331.04 C 459.73 344.36 469.07 357.41 482.11 362.83 C 489.18 366.82 508.03 366.35 501.00 378.00 L 496.24 378.00 C 496.94 376.17 497.48 373.76 495.27 372.74 C 483.26 369.52 469.49 368.24 460.27 358.66 Z" />
</g>
<g id="#8d987dff">
<path fill="#8d987d" opacity="1.00" d=" M 471.97 331.09 C 473.77 328.73 476.17 326.93 478.90 325.76 L 479.95 325.88 C 468.33 345.65 494.85 354.82 508.12 362.88 C 515.70 364.96 514.25 372.47 511.86 378.00 L 505.71 378.00 C 507.17 373.55 510.35 366.60 503.02 365.91 C 489.05 359.74 466.80 349.84 471.97 331.09 Z" />
</g>
<g id="#f1aa63ff">
<path fill="#f1aa63" opacity="1.00" d=" M 491.70 345.32 C 485.19 341.52 483.95 332.51 489.84 327.76 C 506.15 325.87 513.99 341.56 529.73 342.24 C 536.26 349.15 525.04 356.47 520.01 360.31 C 508.92 358.67 501.71 349.39 491.70 345.32 Z" />
</g>
<g id="#232d19ff">
<path fill="#232d19" opacity="1.00" d=" M 654.94 331.99 C 655.21 331.50 655.74 330.50 656.01 330.00 C 655.74 330.50 655.21 331.50 654.94 331.99 Z" />
</g>
<g id="#508582ff">
<path fill="#508582" opacity="1.00" d=" M 468.11 331.04 C 469.39 331.06 470.67 331.07 471.97 331.09 C 466.80 349.84 489.05 359.74 503.02 365.91 C 510.35 366.60 507.17 373.55 505.71 378.00 L 501.00 378.00 C 508.03 366.35 489.18 366.82 482.11 362.83 C 469.07 357.41 459.73 344.36 468.11 331.04 Z" />
</g>
<g id="#202c2fff">
<path fill="#202c2f" opacity="1.00" d=" M 619.46 378.00 C 632.03 363.29 642.14 345.80 654.94 331.99 C 654.99 332.77 655.08 334.32 655.12 335.10 C 647.43 350.09 638.81 364.55 628.63 378.00 L 619.46 378.00 Z" />
</g>
<g id="#e6a660ff">
<path fill="#e6a660" opacity="1.00" d=" M 607.70 351.01 C 611.80 349.91 614.49 345.29 619.05 345.93 C 615.17 359.14 601.92 366.74 594.64 378.00 L 585.68 378.00 C 589.48 370.98 595.36 365.41 600.15 359.08 C 602.79 356.51 605.17 353.69 607.70 351.01 Z" />
</g>
<g id="#79512eff">
<path fill="#79512e" opacity="1.00" d=" M 584.17 366.29 C 589.23 363.31 594.63 361.05 600.15 359.08 C 595.36 365.41 589.48 370.98 585.68 378.00 L 572.29 378.00 C 575.92 373.77 580.56 370.55 584.17 366.29 Z" />
</g>
</svg>
